<svg width="349" height="416" viewBox="0 0 349 416" fill="none" xmlns="http://www.w3.org/2000/svg">
<g clip-path="url(#clip0_746_4)">
<path d="M87.2577 407.85C84.8609 410.632 81.4904 412.772 77.0714 414.342C72.6524 415.911 67.7839 416.695 62.3912 416.695C56.7738 416.767 51.8304 415.626 47.5612 413.272C43.292 410.989 39.9964 407.565 37.6745 403.142C35.3527 398.72 34.0794 393.441 34.0045 387.449V383.241C33.9296 377.035 35.0531 371.685 37.1503 367.12C39.3223 362.554 42.4681 359.059 46.5875 356.634C50.707 354.208 55.5005 352.996 61.1179 352.925C68.8325 352.853 74.8993 354.565 79.3184 358.06C83.7374 361.556 86.284 366.579 87.4825 373.128L73.1027 373.199C72.6532 370.631 71.6796 368.777 70.1816 367.635C68.6837 366.494 66.6621 365.924 64.2654 365.924C60.9698 365.924 58.4981 367.207 57.0001 369.846C55.4272 372.485 54.6782 376.551 54.6782 382.044V386.823C54.6782 392.387 55.5021 396.523 57.0751 399.162C58.7229 401.801 61.2695 403.156 64.9407 403.156C67.4873 403.156 69.5838 402.586 71.1567 401.516C72.7297 400.375 73.6285 398.592 73.9282 396.167L88.3081 396.238C87.3344 403.142 84.6361 408.421 80.2171 412.06C75.7982 415.769 69.7312 417.552 61.9417 417.552C55.8746 417.552 50.6321 416.34 46.2131 413.915C41.8691 411.49 38.4987 407.995 36.4022 403.357C34.3057 398.72 33.1821 392.886 33.2571 386.68V382.329C33.2571 376.052 34.3057 370.147 36.4022 365.509C38.4987 360.872 41.7942 357.305 46.2131 354.808C50.6321 352.311 55.8746 351.099 61.9417 351.099C69.7312 351.099 75.7982 352.882 80.2171 356.52C84.6361 360.159 87.3344 365.438 88.3081 372.357L87.2577 407.85Z" fill="white"/>
<path d="M198.184 402.215L174.666 402.358L170.247 415.197L155.941 415.269L179.759 353.067L192.193 352.996L217.059 414.912L202.753 414.983L198.184 402.215ZM178.186 391.943L194.514 391.872L186.126 368.689L178.186 391.943Z" fill="white"/>
<path d="M234.437 404.498L262.973 404.284L263.048 414.556L221.105 414.842L220.655 352.782L234.137 352.711L234.437 404.498Z" fill="white"/>
<path d="M302.442 398.008C302.442 395.582 301.543 393.728 299.746 392.444C297.948 391.16 294.727 389.805 290.084 388.378C285.44 386.951 281.695 385.596 278.999 384.241C271.584 380.46 267.839 375.395 267.764 368.904C267.764 365.552 268.737 362.556 270.685 359.916C272.632 357.277 275.478 355.208 279.223 353.71C282.893 352.212 287.088 351.428 291.731 351.428C296.375 351.428 300.569 352.141 304.165 353.782C307.835 355.351 310.681 357.634 312.703 360.558C314.725 363.483 315.774 366.764 315.774 370.543H301.394C301.394 368.261 300.795 366.55 299.596 365.409C298.398 364.268 296.675 363.769 294.503 363.769C292.631 363.769 291.207 364.197 290.234 365.123C289.26 366.05 288.736 367.077 288.736 368.333C288.736 369.56 289.41 370.615 290.683 371.614C291.956 372.541 294.503 373.468 298.323 374.395C304.24 375.965 308.659 378.177 311.505 381.102C314.351 384.027 315.774 387.451 315.774 391.374C315.774 396.51 313.977 400.647 310.381 403.786C306.785 406.925 301.768 408.494 295.252 408.494C290.534 408.494 286.34 407.781 282.669 406.282C278.999 404.784 276.153 402.714 274.131 400.004C272.108 397.293 271.134 394.154 271.134 390.518H285.664C285.664 392.943 286.489 394.725 288.137 395.938C289.785 397.151 292.182 397.721 295.252 397.721C297.199 397.721 298.698 397.365 299.671 396.581C300.719 395.868 301.244 394.84 301.244 393.57C301.244 392.229 300.645 391.232 299.521 390.518C298.323 389.805 295.776 388.877 291.881 387.735C286.489 386.236 282.445 384.169 279.748 381.53C277.051 378.891 275.703 375.609 275.703 371.756C275.703 368.332 276.601 365.337 278.474 362.768C280.347 360.2 282.894 358.202 286.115 356.775C289.335 355.348 293.005 354.635 297.124 354.635C304.39 354.635 310.007 356.203 313.977 359.414C317.947 362.625 319.894 366.621 319.894 371.614H305.589C305.364 369.474 304.54 367.905 303.192 366.907C301.843 365.909 299.896 365.41 297.349 365.41C295.551 365.41 294.203 365.766 293.305 366.407C292.406 367.12 291.956 368.047 291.956 369.188C291.956 370.258 292.481 371.114 293.529 371.756C294.578 372.398 296.824 373.111 300.195 373.825C306.112 375.323 310.456 377.321 313.227 379.818C315.998 382.315 317.422 385.739 317.422 390.09C317.422 395.369 315.624 399.649 312.029 402.93C308.434 406.211 303.416 407.851 296.974 407.851C289.11 407.851 282.744 405.925 278.024 402.073C273.305 398.221 270.909 393.155 270.909 386.875H285.215C285.215 389.371 286.189 391.296 288.137 392.65C290.084 394.005 292.631 394.682 295.776 394.682C298.098 394.682 299.896 394.326 301.169 393.613C302.442 392.9 303.041 391.944 303.041 390.732C303.041 389.591 302.517 388.735 301.468 388.164C300.419 387.593 298.173 386.88 294.728 385.953C288.661 384.455 284.242 382.457 281.396 379.96C278.549 377.463 277.126 374.039 277.126 369.688C277.126 364.409 278.924 360.129 282.519 356.848C286.115 353.567 291.132 351.927 297.574 351.927C305.439 351.927 311.805 353.853 316.524 357.705C321.244 361.557 323.641 366.623 323.641 372.903H309.334C309.334 370.407 308.36 368.482 306.413 367.127C304.465 365.773 301.918 365.096 298.772 365.096C296.45 365.096 294.653 365.452 293.379 366.164C292.106 366.877 291.507 367.833 291.507 369.045C291.507 370.186 292.031 371.042 293.08 371.613C294.128 372.184 296.375 372.897 299.82 373.825C305.888 375.323 310.307 377.321 313.153 379.818C315.999 382.315 317.422 385.739 317.422 390.09C317.422 395.369 315.624 399.649 312.029 402.93C308.434 406.211 303.416 407.851 296.974 407.851C302.442 398.008 302.442 395.582 302.442 398.008Z" fill="white"/>
<path d="M111.074 375.895C111.898 374.611 112.872 373.398 113.995 372.328L104.408 362.199C102.012 364.41 99.9144 366.978 98.2666 369.76L111.074 375.895Z" fill="#64B448" stroke="white" stroke-width="0.3"/>
<path d="M134.666 368.76C136.089 369.402 137.512 370.187 138.711 371.185L148.373 361.128C145.826 359.059 142.98 357.347 139.834 356.063L134.666 368.76Z" fill="#D09F29" stroke="white" stroke-width="0.3"/>
<path d="M156.837 371.755L144.029 377.819C144.628 379.174 145.078 380.601 145.303 382.099L159.533 380.815C159.084 377.676 158.185 374.609 156.837 371.755Z" fill="#C32033" stroke="white" stroke-width="0.3"/>
<path d="M143.13 376.107L155.938 370.044C154.365 367.262 152.343 364.694 149.946 362.483L140.284 372.541C141.333 373.611 142.306 374.752 143.13 376.107Z" fill="#2D9A47" stroke="white" stroke-width="0.3"/>
<path d="M108.53 384.74C108.53 384.454 108.53 384.169 108.53 383.884L94.2995 382.671C94.2246 383.313 94.2246 384.026 94.2246 384.74C94.2246 387.307 94.5991 389.875 95.1983 392.301L108.98 388.52C108.68 387.307 108.53 386.095 108.53 384.74Z" fill="#48773C" stroke="white" stroke-width="0.3"/>
<path d="M141.335 395.938C140.286 397.08 139.163 398.15 137.89 399.077L145.38 410.704C148.151 408.921 150.622 406.71 152.72 404.213L141.335 395.938Z" fill="#FAB61B" stroke="white" stroke-width="0.3"/>
<path d="M145.528 384.738C145.528 386.022 145.378 387.306 145.078 388.448L158.86 392.228C159.459 389.803 159.833 387.306 159.833 384.738C159.833 384.096 159.833 383.454 159.758 382.812L145.528 384.096C145.528 384.31 145.528 384.524 145.528 384.738Z" fill="#E8422E" stroke="white" stroke-width="0.3"/>
<path d="M112.948 396.152L101.563 404.355C103.661 406.852 106.207 408.992 108.978 410.775L116.468 399.219C115.195 398.363 113.997 397.365 112.948 396.152Z" fill="#F59C28" stroke="white" stroke-width="0.3"/>
<path d="M108.827 381.957C109.052 380.459 109.576 378.961 110.175 377.606L97.3676 371.542C95.9446 374.396 94.9709 377.534 94.5215 380.744L108.827 381.957Z" fill="#027DBC" stroke="white" stroke-width="0.3"/>
<path d="M143.579 411.631L136.089 400.075C134.741 400.788 133.243 401.359 131.745 401.787L134.367 415.197C137.662 414.412 140.733 413.271 143.579 411.631Z" fill="#8F1839" stroke="white" stroke-width="0.3"/>
<path d="M144.555 390.374C144.031 391.8 143.357 393.084 142.533 394.297L153.918 402.5C155.79 399.932 157.213 397.15 158.262 394.154L144.555 390.374Z" fill="#01ADD8" stroke="white" stroke-width="0.3"/>
<path d="M129.726 402.144C128.827 402.286 128.004 402.358 127.03 402.358C126.281 402.358 125.607 402.286 124.858 402.215L122.236 415.625C123.809 415.839 125.382 415.982 127.03 415.982C128.827 415.982 130.625 415.839 132.348 415.554L129.726 402.144Z" fill="#ED6E28" stroke="white" stroke-width="0.3"/>
<path d="M128.227 367.19C129.799 367.261 131.372 367.547 132.795 368.046L137.963 355.349C134.893 354.35 131.672 353.708 128.227 353.565V367.19Z" fill="#E52330" stroke="white" stroke-width="0.3"/>
<path d="M122.834 401.93C121.261 401.574 119.688 401.003 118.265 400.29L110.775 411.845C113.696 413.415 116.842 414.556 120.213 415.269L122.834 401.93Z" fill="#E01C83" stroke="white" stroke-width="0.3"/>
<path d="M121.486 367.975C122.984 367.547 124.557 367.261 126.13 367.19V353.565C122.685 353.637 119.389 354.279 116.318 355.277L121.486 367.975Z" fill="#1E3666" stroke="white" stroke-width="0.3"/>
<path d="M111.75 394.582C110.851 393.298 110.102 391.943 109.578 390.445L95.8711 394.225C96.9197 397.364 98.4177 400.289 100.44 402.857L111.75 394.582Z" fill="#CD8B2A" stroke="white" stroke-width="0.3"/>
<path d="M115.568 370.972C116.767 370.045 118.115 369.26 119.538 368.689L114.37 355.992C111.299 357.205 108.453 358.917 105.906 360.914L115.568 370.972Z" fill="#00568B" stroke="white" stroke-width="0.3"/>
<path d="M51.006 297.357C51.006 296.358 50.6315 295.574 49.8825 295.003C49.1335 294.432 47.8602 293.862 45.9878 293.291C44.1153 292.72 42.6173 292.15 41.4189 291.579C37.5991 289.796 35.6517 287.299 35.6517 284.161C35.6517 282.591 36.1011 281.236 37.0748 280.023C38.0485 278.811 39.3967 277.883 41.1193 277.241C42.842 276.599 44.8643 276.243 47.0363 276.243C49.2084 276.243 51.0809 276.599 52.8036 277.313C54.5262 278.026 55.7995 279.096 56.7732 280.451C57.7469 281.807 58.1963 283.305 58.1963 285.089H50.9314C50.9314 283.876 50.5569 282.877 49.8079 282.306C49.0589 281.735 47.9353 281.45 46.4373 281.45C45.3888 281.45 44.5649 281.664 43.9657 282.021C43.3665 282.377 43.0668 282.734 43.0668 283.305C43.0668 283.733 43.2916 284.161 43.7411 284.446C44.1905 284.732 44.8644 285.089 45.7632 285.374C46.6619 285.659 47.8603 286.016 49.3583 286.444C51.8299 287.157 53.8516 288.013 55.4245 289.012C56.9974 290.011 58.1963 291.295 59.0201 292.792C59.8439 294.29 60.2934 296.074 60.2934 298.069C60.2934 301.208 59.1698 303.633 56.9228 305.416C54.6758 307.2 51.3802 308.056 47.1111 308.056C44.1905 308.056 41.6439 307.628 39.4719 306.701C37.2999 305.773 35.5772 304.489 34.3038 302.777C33.0305 301.065 32.4313 299.068 32.5062 276.527H47.4111V308.056C47.4111 311.552 49.3583 313.835 51.3054 313.835C53.2526 313.835 55.1998 311.552 55.1998 308.056V276.527H59.8439C64.1129 276.527 67.4085 277.313 69.7304 278.954C72.0524 280.595 73.2507 282.877 73.2507 285.873C73.2507 287.514 72.8763 288.941 72.1273 290.153C71.3783 291.366 70.3298 292.293 68.9817 292.934C70.4047 293.433 71.4532 294.361 72.1272 295.645C72.8012 296.929 73.1759 298.498 73.1759 300.351C73.1759 303.918 72.1273 306.629 70.0308 308.484C67.9343 310.339 64.7885 311.267 60.5945 311.267H47.4111V276.527H63.3639V306.201C63.3639 311.267 59.5441 315.689 54.5512 315.689C49.5583 315.689 45.7384 311.267 45.7384 306.201V276.527H51.0059V297.357Z" fill="white"/>
<path d="M85.6104 276.527V295.073C85.6104 297.142 85.161 298.997 84.1873 300.566C83.2136 302.135 81.8654 303.276 80.1427 304.061C78.4201 304.846 76.3229 305.274 73.9261 305.274C70.331 305.274 67.4848 304.346 65.3876 302.563C63.2905 300.78 62.2419 298.355 62.167 295.216V276.527H69.3573V295.359C69.4322 298.426 70.9302 299.995 73.9261 299.995C75.4241 299.995 76.5476 299.638 77.2966 298.854C78.0456 298.069 78.4201 296.785 78.4201 295.073V276.598H85.6104V276.527Z" fill="white"/>
<path d="M105.905 297.357C105.905 296.358 105.531 295.574 104.782 295.003C104.033 294.432 102.76 293.862 100.887 293.291C99.0147 292.72 97.5167 292.15 96.3184 291.579C92.4985 289.796 90.5511 287.299 90.5511 284.161C90.5511 282.591 91.0005 281.236 91.9742 280.023C92.9479 278.811 94.2961 277.883 96.0188 277.241C97.7414 276.599 99.7637 276.243 101.936 276.243C104.108 276.243 105.98 276.599 107.703 277.313C109.426 278.026 110.699 279.096 111.673 280.451C112.646 281.807 113.096 283.305 113.096 285.089H105.831C105.831 283.876 105.456 282.877 104.707 282.306C103.958 281.735 102.835 281.45 101.337 281.45C100.288 281.45 99.4641 281.664 98.8649 282.021C98.2657 282.377 97.966 282.734 97.966 283.305C97.966 283.733 98.1908 284.161 98.6402 284.446C99.0897 284.732 99.7636 285.089 100.662 285.374C101.561 285.659 102.759 286.016 104.257 286.444C106.729 287.157 108.751 288.013 110.324 289.012C111.897 290.011 113.096 291.295 113.92 292.792C114.743 294.29 115.193 296.074 115.193 298.069C115.193 301.208 114.069 303.633 111.822 305.416C109.575 307.2 106.28 308.056 102.011 308.056C99.0897 308.056 96.5431 307.628 94.3711 306.701C92.199 305.773 90.4764 304.489 89.203 302.777C87.9296 301.065 87.3304 299.068 87.4053 297.071H94.5957C94.5957 299.21 95.3446 300.78 96.8426 301.779C98.3406 302.778 100.363 303.276 102.909 303.276C104.407 303.276 105.531 302.992 106.28 302.421C107.029 301.85 107.403 301.137 107.403 300.281C107.403 299.282 107.029 298.569 106.28 298.069C105.531 297.57 104.407 297.142 102.909 296.714C100.888 296.215 99.3897 295.573 98.4159 294.789C97.4422 294.005 96.7683 293.006 96.3938 291.793C96.0194 290.581 95.8696 289.225 95.9445 287.727C95.9445 284.731 97.0681 282.306 99.315 280.523C101.562 278.74 104.857 277.883 109.201 277.883C112.047 277.883 114.519 278.311 116.616 279.168C118.713 280.024 120.361 281.236 121.56 282.805C122.758 284.375 123.357 286.301 123.357 288.513H116.167C116.167 286.373 115.418 284.803 113.92 283.804C112.422 282.805 110.4 282.306 107.853 282.306C106.355 282.306 105.231 282.591 104.482 283.162C103.733 283.733 103.359 284.446 103.359 285.303C103.359 286.301 103.733 287.015 104.482 287.514C105.231 288.013 106.355 288.442 107.853 288.87C109.95 289.439 111.523 290.081 112.572 290.795C113.62 291.508 114.369 292.508 114.819 293.793C115.268 295.078 115.493 296.5 115.493 298.069C115.193 298.069 105.905 297.357 105.905 297.357Z" fill="white"/>
<path d="M140.511 281.805H131.598V304.917H124.408V281.805H115.645V276.527H140.511V281.805Z" fill="white"/>
<path d="M158.413 299.567H148.601L146.879 304.846H139.164L150.099 276.527H156.84L167.85 304.846H160.136L158.413 299.567ZM150.249 294.36H156.616L153.395 284.516L150.249 294.36Z" fill="white"/>
<path d="M178.036 276.527H170.921V304.846H178.036V276.527Z" fill="white"/>
<path d="M208.293 304.917H201.178L190.617 287.227V304.917H183.427V276.527H190.617L201.178 294.217V276.527H208.293V304.917Z" fill="white"/>
<path d="M230.536 299.567H220.725L219.002 304.846H211.362L222.298 276.527H229.038L240.049 304.846H232.334L230.536 299.567ZM222.447 294.36H228.814L225.593 284.516L222.447 294.36Z" fill="white"/>
<path d="M242.521 304.919V276.6H253.232C257.052 276.6 259.973 277.242 261.995 278.597C264.017 279.952 264.991 281.878 264.991 284.446C264.991 285.944 264.617 287.157 263.943 288.227C263.268 289.297 262.22 290.01 260.797 290.509C262.37 290.866 263.568 291.651 264.392 292.721C265.216 293.791 265.665 295.075 265.665 296.644C265.665 299.426 264.766 301.495 262.894 302.921C261.022 304.348 258.325 305.061 254.655 305.061H242.521V304.919ZM249.712 288.369H253.457C255.03 288.369 256.153 288.012 256.828 287.3C257.502 286.587 257.877 285.66 257.877 284.518C257.877 283.376 257.502 282.449 256.828 281.736C256.153 281.024 255.03 280.667 253.457 280.667H249.712V288.369ZM249.712 299.782H254.505C256.002 299.782 257.052 299.426 257.652 298.713C258.251 298 258.55 297.073 258.55 295.931C258.55 294.789 258.251 293.862 257.652 293.149C257.052 292.436 256.002 292.08 254.505 292.08H249.712V299.782Z" fill="white"/>
<path d="M277.126 299.639H289.634V304.917H269.936V276.527H277.126V299.639Z" fill="white"/>
<path d="M311.504 292.862H300.269V299.639H313.601V304.917H293.079V276.527H313.601V281.805H300.269V287.797H311.504V292.862Z" fill="white"/>
<path d="M35.6514 343.223V315.475H45.0137C47.5603 315.475 49.8822 316.046 51.9793 317.116C54.0016 318.257 55.6494 319.826 56.7728 321.824C57.8963 323.821 58.4955 326.104 58.4955 328.672V329.956C58.4955 332.524 57.8963 334.806 56.7728 336.803C55.6494 338.801 54.0765 340.37 51.9793 341.511C49.9571 342.653 47.6352 343.223 45.0886 343.223H35.6514ZM42.6919 320.611V338.087H45.1635C47.1858 338.087 48.7587 337.374 49.8073 336.019C50.8558 334.663 51.455 332.595 51.455 329.956V328.743C51.455 326.104 50.8558 324.036 49.8073 322.681C48.7587 321.325 47.1858 320.611 45.1635 320.611H42.6919Z" fill="white"/>
<path d="M78.7203 331.454H68.3842V338.087H80.6677V343.223H61.3438V315.475H80.7426V320.611H68.3842V326.46H78.7203V331.454Z" fill="white"/>
<path d="M96.0948 335.662L101.937 315.475H109.801L99.9895 343.223H92.2749L82.5381 315.475H90.3276L96.0948 335.662Z" fill="white"/>
<path d="M129.128 331.454H118.942V338.087H131.15V343.223H111.901V315.475H131.15V320.611H118.942V326.46H129.128V331.454Z" fill="white"/>
<path d="M140.586 338.087H151.671V343.223H133.546V315.475H140.586V338.087Z" fill="white"/>
<path d="M177.883 329.884C177.883 332.595 177.359 335.02 176.31 337.089C175.262 339.157 173.764 340.798 171.817 341.868C169.869 343.009 167.697 343.58 165.15 343.58C162.679 343.58 160.432 343.009 158.559 341.939C156.612 340.869 155.114 339.3 154.065 337.303C153.017 335.305 152.418 332.951 152.343 330.312V328.743C152.343 326.032 152.867 323.607 153.916 321.538C154.964 319.47 156.462 317.829 158.41 316.688C160.357 315.546 162.604 314.976 165.076 314.976C167.547 314.976 169.719 315.547 171.667 316.688C173.614 317.829 175.112 319.47 176.16 321.538C177.209 323.607 177.733 326.032 177.733 328.743V330.312C177.808 332.951 177.883 329.884 177.883 329.884ZM170.693 328.672C170.693 325.819 170.169 323.821 169.12 322.681C168.072 321.54 166.499 320.896 164.401 320.896C162.379 320.896 160.806 321.54 159.758 322.681C158.709 323.821 158.185 325.819 158.185 328.672V330.241C158.185 333.095 158.709 335.092 159.758 336.233C160.806 337.374 162.379 338.018 164.477 338.018C166.499 338.018 168.072 337.374 169.12 336.233C170.169 335.092 170.693 333.095 170.693 330.241V328.672Z" fill="white"/>
<path d="M187.696 333.807V343.223H180.655V315.475H192.265C194.512 315.475 196.459 315.832 198.182 316.616C199.904 317.401 201.253 318.542 202.151 319.969C203.125 321.396 203.574 323.036 203.574 324.891C203.574 327.602 202.526 329.742 200.504 331.382C198.481 333.023 195.71 333.807 192.115 333.807H187.696ZM187.696 328.6H192.265C193.613 328.6 194.661 328.244 195.41 327.602C196.159 326.96 196.459 326.032 196.459 324.891C196.459 323.607 196.084 322.537 195.335 321.752C194.586 320.968 193.538 320.54 192.19 320.54H187.696V328.6Z" fill="white"/>
<path d="M215.41 315.475L221.926 334.806L228.367 315.475H237.655V343.223H230.614V336.732L231.288 323.464L224.248 343.223H219.604L212.489 323.464L213.163 336.732V343.223H206.197V315.475H215.41Z" fill="white"/>
<path d="M258.177 331.454H247.766V338.087H260.125V343.223H240.801V315.475H260.2V320.611H247.766V326.46H258.177V331.454Z" fill="white"/>
<path d="M286.863 343.223H279.897L269.561 325.961V343.223H262.521V315.475H269.561L279.822 332.738V315.475H286.863V343.223Z" fill="white"/>
<path d="M313.601 320.611H304.838V343.223H297.797V320.611H289.259V315.475H313.601V320.611Z" fill="white"/>
<path d="M262.821 54.2446C281.804 86.3383 277.847 135.229 254.978 164.115C229.659 198.395 187.914 213.268 146.582 201.594C109.093 191.519 78.5134 154.836 75.0853 115.17C70.4146 73.1105 89.4852 34.7733 124.172 13.766C150.901 -3.08507 192.135 -5.00058 219.948 10.9921C236.85 19.4131 253.85 36.6888 262.742 54.2265L262.821 54.2446ZM176.924 4.76669C177.277 8.60674 177.277 13.9828 176.924 18.365C177.03 17.6692 177.656 17.6692 178.07 17.4072C179.374 17.8861 179.374 19.5396 179.004 20.66H180.266C180.973 19.6222 181.222 18.0948 180.599 17.1396C180.142 16.4439 179.477 16.0482 178.769 15.6526C178.726 15.3953 178.726 15.138 178.683 14.8807C178.94 14.8807 179.197 14.8398 179.454 14.7989C180.599 14.4849 181.744 14.2684 182.888 13.9136C183.595 13.68 184.303 13.4054 185.01 13.1717C185.717 12.9379 186.425 12.7042 187.175 12.5904C187.925 12.4767 188.675 12.4359 189.425 12.4767C190.527 12.518 191.671 12.6726 192.773 12.9379C194.991 13.5102 197.167 14.4441 199.13 15.8613C199.923 16.4439 200.673 17.0673 201.38 17.7314C202.087 18.3955 202.751 19.0596 203.416 19.7646C204.08 20.4696 204.703 21.1746 205.324 21.8796C206.567 23.2967 207.669 24.7546 208.732 26.2533C210.863 29.2507 212.781 32.4521 214.699 35.6535C216.617 38.8548 218.536 42.0971 220.368 45.3803C221.284 47.0219 222.157 48.7044 222.989 50.3869C223.821 52.0694 224.61 53.752 225.356 55.4345C226.102 57.1171 226.809 58.7997 227.472 60.4822C228.135 62.1648 228.757 63.8065 229.336 65.4891C229.549 66.1532 229.763 66.8173 229.933 67.4814C230.104 68.1455 230.275 68.8096 230.403 69.4737C230.532 70.1378 230.617 70.8019 230.703 71.466C230.789 72.1301 230.832 72.7942 230.876 73.4583C231.005 75.7879 230.918 78.1584 230.575 80.4881C230.232 82.8177 229.677 85.1065 228.952 87.3544C228.759 88.0593 228.544 88.7234 228.287 89.3875C228.03 90.0516 227.774 90.7158 227.474 91.3799C226.873 92.708 226.186 93.9952 225.414 95.2415C224.642 96.4878 223.782 97.6933 222.859 98.8579C220.972 101.226 218.911 103.43 216.702 105.47C214.493 107.511 212.179 109.306 209.756 110.897C209.584 111.02 209.413 111.142 209.242 111.264C209.07 111.387 208.899 111.509 208.728 111.632C208.386 111.877 208.043 112.122 207.7 112.326C207.356 112.531 207.014 112.735 206.671 112.939C205.985 113.348 205.298 113.715 204.611 114.042C203.925 114.368 203.239 114.695 202.552 115.021C201.179 115.675 199.806 116.288 198.433 116.86C197.06 117.432 195.687 117.965 194.314 118.456C194.015 118.579 193.714 118.661 193.414 118.784C193.114 118.906 192.814 119.029 192.514 119.152C191.914 119.397 191.313 119.642 190.713 119.888C190.112 120.133 189.512 120.378 188.912 120.623C187.71 121.113 186.509 121.604 185.307 122.094C184.106 122.585 182.905 123.075 181.703 123.566C180.502 124.056 179.301 124.547 178.099 125.038C176.898 125.528 175.697 126.019 174.495 126.509C173.294 127 172.093 127.49 170.891 127.981C169.69 128.471 168.489 128.962 167.287 129.452C165.178 130.433 163.068 131.414 160.916 132.314C158.765 133.213 156.571 134.072 154.334 134.849C152.098 135.626 149.818 136.321 147.497 136.895C145.175 137.468 142.812 137.919 140.406 138.248C138 138.576 135.551 138.782 133.061 138.865C130.571 138.948 128.039 138.906 125.464 138.742C122.89 138.577 120.273 138.29 117.613 137.88C114.954 137.47 112.251 136.937 109.506 136.281C106.761 135.625 104.016 134.847 101.27 133.946C98.525 133.045 95.7797 132.022 93.0343 130.877C90.2889 129.732 87.5435 128.465 84.7981 127.076C82.0527 125.687 79.3073 124.176 76.5619 122.544C74.4532 121.236 72.3444 119.888 70.2357 118.498C68.1269 117.108 66.0182 115.677 63.9094 114.205C61.8006 112.734 59.6919 111.221 57.5831 109.668C55.4744 108.115 53.3656 106.521 51.2568 104.887C49.1481 103.253 47.0393 101.579 44.9306 99.8641C42.8218 98.1495 40.713 96.3941 38.6043 94.5979C36.4955 92.8017 34.3868 90.9647 32.278 89.0869C30.1693 87.2091 28.0605 85.2905 25.9518 83.3311C23.843 81.3717 21.7342 79.3715 19.6255 77.3305C17.5167 75.2895 15.408 73.2076 13.2992 71.085C11.1905 68.9624 9.08175 66.7989 6.97297 64.5946C4.86419 62.3903 2.7554 60.1451 0.646636 57.859L2.67017 54.1629C4.77895 56.4489 6.88772 58.6939 8.9965 60.8981C11.1053 63.1022 13.214 65.2656 15.3228 67.3882C17.4315 69.5108 19.5403 71.5926 21.6491 73.6337C23.7578 75.6748 25.8666 77.6751 27.9754 79.6346C30.0841 81.594 32.1929 83.5126 34.3017 85.3904C36.4104 87.2683 38.5192 89.1053 40.628 90.9015C42.7367 92.6977 44.8455 94.4531 46.9543 96.1677C49.063 97.8823 51.1718 99.5561 53.2806 101.189C55.3893 102.822 57.4981 104.415 59.6069 105.968C61.7156 107.521 63.8244 109.034 65.9332 110.506C68.0419 111.978 70.1507 113.409 72.2595 114.8C74.3682 116.19 76.477 117.539 78.5858 118.847C81.3311 120.481 84.0765 122.074 86.8219 123.627C89.5673 125.179 92.3127 126.692 95.0581 128.164C97.8035 129.637 100.549 131.069 103.294 132.462C106.04 133.854 108.785 135.208 111.531 136.522C114.276 137.836 117.022 139.111 119.767 140.347C122.513 141.583 125.258 142.78 128.004 143.937C130.749 145.094 133.495 146.212 136.24 147.291C138.986 148.369 141.731 149.409 144.477 150.409C147.222 151.409 149.968 152.37 152.713 153.292C155.459 154.214 158.204 155.096 160.95 155.939C163.695 156.782 166.441 157.585 169.186 158.349C171.932 159.113 174.677 159.838 177.423 160.523C180.168 161.208 182.914 161.854 185.659 162.461C188.405 163.068 191.15 163.635 193.896 164.163C196.641 164.691 199.387 165.179 202.132 165.628C204.878 166.077 207.623 166.487 210.369 166.857C213.114 167.227 215.86 167.557 218.605 167.848C221.351 168.139 224.096 168.39 226.842 168.602C229.587 168.814 232.333 168.986 235.078 169.119C237.824 169.252 240.569 169.345 243.315 169.399C246.06 169.453 248.806 169.467 251.551 169.442C254.297 169.417 257.042 169.353 259.788 169.249C262.533 169.145 265.279 169.002 268.024 168.819C270.77 168.636 273.515 168.414 276.261 168.152C279.006 167.89 281.752 167.589 284.497 167.248C287.243 166.907 289.988 166.526 292.734 166.106C295.479 165.686 298.225 165.225 300.97 164.725C303.716 164.225 306.461 163.685 309.207 163.105C311.952 162.525 314.698 161.906 317.443 161.246C320.189 160.587 322.934 159.887 325.68 159.148C328.425 158.409 331.171 157.629 333.916 156.81C336.662 155.991 339.407 155.132 342.153 154.233C344.898 153.334 347.644 152.395 349.001 150.846L349 54.2446C349 54.2446 349 54.2446 262.821 54.2446Z" fill="white"/>
</g>
<defs>
<clipPath id="clip0_746_4">
<rect width="349" height="416" fill="white"/>
</clipPath>
</defs>
</svg>