<svg width="349" height="416" viewBox="0 0 349 416" fill="none" xmlns="http://www.w3.org/2000/svg">
<path d="M133.143 60.6464C133.1 61.1368 133.057 61.6271 133.1 62.1176C133.229 68.9018 130.437 75.8904 125.284 80.7128C122.793 83.0423 120.302 85.4127 117.854 87.824C112.915 92.6056 106.086 95.0169 99.0854 94.3629C98.6989 94.3221 98.3124 94.3221 97.9258 94.2812C91.2689 94.1177 84.8697 98.9811 86.5017 105.765C88.1337 112.427 90.1952 120.11 102.221 119.906C102.607 119.906 102.994 120.029 103.337 120.11C110.724 121.01 117.596 124.647 122.75 129.674C125.413 132.289 127.989 134.946 130.522 137.643C135.289 142.548 138.082 149.37 137.953 156.195C137.953 156.563 137.91 156.93 137.867 157.297C137.566 163.551 142.248 169.721 149.421 168.209C153.028 167.433 157.752 166.125 160.329 163.673C163.035 161.057 163.894 156.848 164.882 153.252C164.968 152.884 165.054 152.557 165.14 152.189C166.428 145.324 170.25 138.784 175.619 133.879C177.897 131.6 181.074 130.477 182.22 127.393C183.408 124.105 181.46 120.572 182.306 116.935C183.408 112.141 187.832 107.684 192.557 105.765C199.816 102.559 205.541 96.1015 210.395 89.3538C216.576 80.631 219.754 68.2875 213.702 58.6643C212.384 56.507 210.695 54.7428 208.802 53.0604C206.866 51.3372 204.802 49.6956 202.523 48.1969C198.02 45.1588 193.089 42.6657 188.02 40.704C185.485 39.7231 182.821 38.9058 180.242 37.8024C177.663 36.699 175.168 35.4088 173.018 33.6446C169.197 30.5248 166.685 25.9067 167.197 20.7122C167.24 20.3445 167.326 19.9767 167.412 19.609C167.755 17.1568 167.326 14.8681 168.228 12.2934C169.24 9.35494 170.853 6.86182 172.466 4.28625C173.282 2.9785 174.097 1.79247 174.27 0.525009C174.356 -0.00629139 174.528 -0.456075 174.871 -0.823836C175.686 -1.68198 177.147 -1.68198 178.35 -1.15969C179.553 -0.637394 180.542 0.443733 181.271 1.68287C182.048 3.04057 182.606 4.43913 183.293 5.87856C184.152 7.6836 185.097 9.44778 186.128 11.1712C187.202 12.9355 188.405 14.6589 189.694 16.3414C190.983 18.0239 192.357 19.6656 193.817 21.2661C195.277 22.8666 196.823 24.4263 198.455 25.9457C200.087 27.465 201.804 28.9434 203.607 30.3806C205.41 31.8178 207.299 33.2141 209.274 34.5694C211.249 35.9247 213.31 37.2391 215.457 38.5125C217.604 39.7859 219.837 41.0184 222.155 42.21C224.474 43.4015 226.878 44.5521 229.368 45.6618C231.858 46.7715 234.434 47.8403 237.095 48.8681C239.757 49.8959 242.504 50.8828 245.337 51.8287C248.169 52.7747 251.088 53.6797 254.092 54.5438C256.067 55.1672 258.042 55.7907 260.018 56.3732C261.993 56.9558 263.968 57.5384 265.944 58.0801C266.93 58.3547 267.917 58.5885 268.904 58.8631C269.891 59.1377 270.877 59.4123 271.864 59.6868C274.829 60.5918 277.794 61.5376 280.717 62.6065C283.639 63.6753 286.519 64.8671 289.356 66.1813C292.193 67.4956 294.988 68.9327 297.74 70.4928C300.492 72.0529 303.202 73.7355 305.868 75.5405C308.535 77.3456 311.159 79.2729 313.74 81.3226C316.32 83.3723 318.858 85.5443 321.353 87.8387C323.847 90.1331 326.3 92.5498 328.709 95.0889C331.119 97.628 333.485 100.289 335.808 103.071C338.131 105.854 340.411 108.758 342.648 111.784C344.884 114.81 347.078 117.958 349.229 121.227L347.549 125.008C345.398 121.739 343.204 118.591 340.967 115.565C338.731 112.539 336.451 109.634 334.128 106.852C331.805 104.069 329.439 101.409 327.03 98.8697C324.621 96.3308 322.168 93.9141 319.673 91.6197C317.178 89.3253 314.641 87.153 312.061 85.1029C309.481 83.0528 306.857 81.1255 304.191 79.3204C301.524 77.5153 298.814 75.8328 296.062 74.2727C293.31 72.7126 290.516 71.2755 287.679 69.9612C284.842 68.647 281.962 67.4552 279.04 66.3864C276.117 65.3175 273.152 64.372 270.145 63.5487C269.158 63.2741 268.171 63.0404 267.184 62.7658C266.197 62.4912 265.21 62.2167 264.223 61.9421C262.248 61.3595 260.272 60.7769 258.297 60.2351C256.321 59.6934 254.346 59.1925 252.371 58.6917C249.367 57.7866 246.447 56.8815 243.615 55.9356C240.782 54.9897 238.036 54.0029 235.375 52.9751C232.714 51.9473 230.138 50.8785 227.648 49.7687C225.158 48.659 222.754 47.5084 220.435 46.3169C218.117 45.1254 215.883 43.8929 213.734 42.6194C211.585 41.346 209.521 40.0317 207.543 38.6764C205.564 37.3211 203.671 35.9248 201.864 34.4876C200.057 33.0504 198.336 31.5721 196.701 30.0528C195.066 28.5335 193.517 26.973 192.053 25.3717C190.59 23.7704 189.212 22.1282 187.92 20.445C186.628 18.7618 185.422 17.0377 184.302 15.2734C183.182 13.5091 182.148 11.7039 181.201 9.8579C180.56 8.53524 179.962 7.17258 179.407 5.76906C178.979 4.73477 178.593 3.65961 178.25 2.54444C178.078 1.9618 177.948 1.37916 177.819 0.755658C177.733 0.428981 177.69 0.0614763 177.647 -0.26589C177.604 -0.675019 177.561 -1.12479 177.604 -1.53392C177.647 -1.98371 177.863 -2.39284 178.164 -2.72038C178.55 -3.1293 179.022 -3.45684 179.537 -3.66337C180.352 -4.02114 181.253 -4.09845 182.112 -3.8647C183.014 -3.63095 183.831 -3.05833 184.518 -2.36424C185.205 -1.67016 185.763 -0.83454 186.277 0.0418919C187.008 1.36368 187.566 2.76804 188.253 4.09069C189.197 5.93662 190.271 7.70081 191.43 9.42413C192.632 11.1884 193.963 12.8709 195.423 14.4714C196.883 16.0719 198.472 17.5911 200.19 19.0283C201.908 20.4655 203.756 21.8208 205.733 23.0943C207.711 24.3677 209.819 25.5592 212.057 26.6689C214.295 27.7786 216.663 28.8066 219.161 29.7526C221.659 30.6986 224.287 31.5627 227.045 32.3449C229.803 33.1271 232.691 33.8275 235.709 34.446C238.728 35.0645 241.877 35.6012 245.156 36.056C248.435 36.5108 251.844 36.8838 255.383 37.175C258.922 37.4662 262.591 37.6755 266.39 37.8031C270.189 37.9307 274.118 37.9765 278.177 37.9408C282.236 37.9051 286.425 37.7877 290.744 37.5885C295.063 37.3893 299.512 37.1084 304.091 36.7457C308.67 36.383 313.379 35.9386 318.218 35.4124C323.057 34.8862 327.026 34.3173 329.925 33.8275C331.375 33.5827 332.653 33.3379 333.758 33.093C334.863 32.8482 335.796 32.6034 336.557 32.3585C337.318 32.1137 337.907 31.8688 338.324 31.624C338.741 31.3791 338.986 31.1343 339.059 30.8894C339.132 30.6446 339.031 30.3997 338.757 30.1549C338.482 29.91 338.035 29.6652 337.415 29.4203C336.795 29.1755 336.002 28.9306 335.036 28.6858C334.07 28.441 332.931 28.1961 331.619 27.9513C330.307 27.7064 328.822 27.4616 327.164 27.2168C325.506 26.9719 323.675 26.7271 321.672 26.4822C319.669 26.2374 317.494 25.9925 315.147 25.7477C312.8 25.5028 310.281 25.258 307.59 25.0131C304.899 24.7683 302.036 24.5234 299.001 24.2786C295.966 24.0337 292.759 23.7889 289.38 23.544C286.001 23.2992 282.45 23.0543 278.727 22.8095C275.004 22.5646 271.109 22.3198 267.042 22.0749C262.975 21.8301 258.736 21.5852 254.325 21.3404C249.914 21.0955 245.331 20.8507 240.576 20.6058C235.821 20.361 231.894 20.1161 227.795 19.8713C223.696 19.6264 218.425 19.3816 212.982 19.1367C207.539 18.8919 200.924 18.647 193.137 18.4022C185.35 18.1573 176.391 17.9125 166.26 17.6676C156.129 17.4228 144.826 17.1779 132.351 16.9331C119.876 16.6882 106.229 16.4434 91.41 16.1985C76.591 15.9537 60.6001 15.7088 43.4372 15.464C26.2743 15.2191 7.93944 14.9743 -12.5677 14.7294C-32.075 14.4846 -53.7546 14.2397 -77.6066 13.9949L-77.6066 62.118C-53.7546 62.3628 -32.075 62.6077 -12.5677 62.8525C7.93944 63.0974 26.2743 63.3422 43.4372 63.5871C60.6001 63.8319 76.591 64.0768 91.41 64.3216C106.229 64.5665 119.876 64.8113 132.351 65.0562C144.826 65.301 156.129 65.5459 166.26 65.7907C176.391 66.0356 185.35 66.2804 193.137 66.5253C200.924 66.7701 207.539 67.015 212.982 67.2598C218.425 67.5047 223.696 67.7495 227.795 67.9944C231.894 68.2392 235.821 68.4841 240.576 68.7289C245.331 68.9738 249.914 69.2186 254.325 69.4635C258.736 69.7083 262.975 69.9532 267.042 70.198C271.109 70.4429 275.004 70.6877 278.727 70.9326C282.45 71.1774 286.001 71.4223 289.38 71.6671C292.759 71.912 295.966 72.1568 299.001 72.4017C302.036 72.6465 304.899 72.8914 307.59 73.1362C310.281 73.3811 312.8 73.6259 315.147 73.8708C317.494 74.1156 319.669 74.3605 321.672 74.6053C323.675 74.8502 325.506 75.095 327.164 75.3399C328.822 75.5847 330.307 75.8296 331.619 76.0744C332.931 76.3193 334.07 76.5641 335.036 76.809C336.002 77.0538 336.795 77.2987 337.415 77.5435C338.035 77.7884 338.482 78.0332 338.757 78.2781C339.031 78.5229 339.132 78.7678 339.059 79.0126C338.986 79.2575 338.741 79.5023 338.324 79.7472C337.907 79.992 337.318 80.2369 336.557 80.4817C335.796 80.7266 334.863 80.9714 333.758 81.2163C332.653 81.4611 331.375 81.706 329.925 81.9508C327.026 82.4406 323.057 83.0095 318.218 83.5357C313.379 84.0619 308.67 84.5063 304.091 84.869C299.512 85.2317 295.063 85.5126 290.744 85.7118C286.425 85.911 282.236 86.0284 278.177 86.0641C274.118 86.0998 270.189 86.054 266.39 85.9264C262.591 85.7988 258.922 85.5895 255.383 85.2983C251.844 85.0071 248.435 84.6341 245.156 84.1793C241.877 83.7245 238.728 83.1878 235.709 82.5693C232.691 81.9508 229.803 81.2504 227.045 80.4682C224.287 79.686 221.659 78.8219 219.161 77.8759C216.663 76.9299 214.295 75.9019 212.057 74.7922C209.819 73.6825 207.711 72.491 205.733 71.2176C203.756 69.9441 201.908 68.5888 200.19 67.1516C198.472 65.7144 196.883 64.1952 195.423 62.5947C193.963 60.9942 192.632 59.3117 191.43 57.5474C190.271 55.8241 189.197 54.0599 188.253 52.214C187.566 50.8913 187.008 49.487 186.277 48.1652C185.763 47.2888 185.205 46.4532 184.518 45.7591C183.831 45.065 183.014 44.4924 182.112 44.2586C181.253 44.0249 180.352 44.1022 179.537 44.4599C179.022 44.6665 178.55 44.994 178.164 45.4029C177.863 45.7305 177.647 46.1396 177.604 46.5887C177.561 46.9979 177.604 47.4477 177.647 47.8567C177.69 48.1843 177.733 48.5518 177.819 48.8794C177.948 49.5035 178.078 50.0861 178.25 50.6687C178.593 51.7839 178.979 52.8591 179.407 53.8934C179.962 55.2969 180.56 56.6595 181.201 57.9821C182.148 59.8281 183.182 61.6333 184.302 63.3976C185.422 65.1619 186.628 66.886 187.92 68.5692C189.212 70.2524 190.59 71.8946 192.053 73.4959C193.517 75.0972 195.066 76.6577 196.701 78.177C198.336 79.6963 200.057 81.1746 201.864 82.6118C203.671 84.049 205.564 85.4453 207.543 86.8006C209.521 88.1559 211.585 89.4702 213.734 90.7436C215.883 92.0171 218.117 93.2496 220.435 94.4411C222.754 95.6326 225.158 96.7832 227.648 97.8929C230.138 99.0027 232.714 100.072 235.375 101.099C238.036 102.127 240.782 103.114 243.615 104.06C246.447 105.006 249.367 105.911 252.371 106.816C254.346 107.317 256.321 107.818 258.297 108.359C260.272 108.901 262.248 109.484 264.223 110.066C265.21 110.341 266.197 110.575 267.184 110.849C268.171 111.124 269.158 111.398 270.145 111.673C273.152 112.496 276.117 113.441 279.04 114.51C281.962 115.579 284.842 116.771 287.679 118.085C290.516 119.4 293.31 120.837 296.062 122.397C298.814 123.957 301.524 125.639 304.191 127.445C306.857 129.25 309.481 131.177 312.061 133.227C314.641 135.277 317.178 137.449 319.673 139.744C322.168 142.038 324.621 144.455 327.03 146.994C329.439 149.533 331.805 152.194 334.128 154.977C336.451 157.759 338.731 160.664 340.967 163.69C343.204 166.716 345.398 169.864 347.549 173.133L349.229 176.914C347.078 180.183 344.884 183.331 342.648 186.357C340.411 189.383 338.131 192.287 335.808 195.07C333.485 197.852 331.119 200.512 328.709 203.052C326.3 205.591 323.847 208.008 321.353 210.302C318.858 212.597 316.32 214.769 313.74 216.818C311.159 218.868 308.535 220.795 305.868 222.6C303.202 224.405 300.492 226.088 297.74 227.648C294.988 229.208 292.193 230.645 289.356 231.96C286.519 233.274 283.639 234.466 280.717 235.535C277.794 236.604 274.829 237.549 271.864 238.372C270.877 238.647 269.891 238.881 268.904 239.155C267.917 239.43 266.93 239.704 265.944 239.979C263.968 240.562 261.993 241.144 260.018 241.727C258.042 242.309 256.067 242.933 254.092 243.556C251.088 244.46 248.169 245.405 245.337 246.393C242.504 247.381 239.757 248.41 237.095 249.482C234.434 250.554 231.858 251.668 229.368 252.824C226.878 253.98 224.474 255.179 222.155 256.42C219.837 257.661 217.604 258.944 215.457 260.269C213.31 261.594 211.249 262.96 209.274 264.367C207.299 265.774 205.41 267.223 203.607 268.713C201.804 270.203 200.087 271.734 198.455 273.307C196.823 274.88 195.277 276.494 193.817 278.15C192.357 279.806 190.983 281.503 189.694 283.242C188.405 284.981 187.202 286.761 186.128 288.582C185.097 290.363 184.152 292.185 183.293 294.047C182.606 295.909 182.048 297.811 181.271 299.753C180.542 301.695 179.553 303.677 178.35 305.699C177.147 307.721 175.686 309.783 174.871 311.885C174.528 312.293 174.356 312.743 174.27 313.193C174.097 314.5 173.282 316.027 172.466 317.595C170.853 320.212 169.24 322.746 168.228 325.725C167.326 328.34 167.755 330.628 167.412 333.081C167.326 333.449 167.24 333.816 167.197 334.184C166.685 339.378 169.197 343.996 173.018 347.116C175.168 348.88 177.663 350.17 180.242 351.273C182.821 352.377 185.485 353.294 188.02 354.275C193.089 356.237 198.02 358.73 202.523 361.768C204.802 363.29 206.866 364.957 208.802 366.68C210.695 368.362 212.384 370.126 213.702 372.284C219.754 381.907 216.576 394.25 210.395 403.014C205.541 409.762 199.816 416.22 192.557 419.426C187.832 421.345 183.408 416.851 182.306 412.057C181.46 408.42 183.408 404.887 182.22 401.599C181.074 398.515 177.897 397.392 175.619 395.113C170.25 390.208 166.428 383.668 165.14 376.803C165.054 376.435 164.968 376.108 164.882 375.74C163.894 372.144 163.035 367.935 160.329 365.319C157.752 362.867 153.028 361.559 149.421 360.783C142.248 359.271 137.566 365.441 137.867 371.695C137.91 372.062 137.953 372.429 137.953 372.797C138.082 379.622 135.289 386.444 130.522 391.349C127.989 394.046 125.413 396.703 122.75 399.318C117.596 404.345 110.724 407.982 103.337 408.882C102.994 408.963 102.607 409.086 102.221 409.086C90.1952 408.882 88.1337 416.565 86.5017 423.227C84.8697 430.011 91.2689 434.874 97.9258 434.711C98.3124 434.67 98.6989 434.67 99.0854 434.629C106.086 433.975 112.915 436.386 117.854 441.168C120.302 443.579 122.793 445.95 125.284 448.279C130.437 453.101 133.229 460.09 133.1 466.874C133.057 467.365 133.1 467.855 133.143 468.346" fill="#00BFAE"/>
<path d="M203.402 44.8683C202.887 44.8274 202.328 44.7866 201.77 44.7866C194.297 44.8683 186.309 42.3344 181.026 37.1033C178.578 34.6921 176.13 32.1991 173.639 29.7878C168.915 25.0062 166.51 18.5899 167.455 12.01C167.498 11.6423 167.541 11.2745 167.584 10.9475C167.841 6.61545 165.436 1.91558 160.884 0.485181C155.73 -1.10868 148.472 1.46603 144.65 4.69464C142.417 6.57458 141.515 9.23102 140.699 11.9692C139.969 14.4622 140.398 16.8734 139.582 19.4073C137.821 24.8836 134.557 29.9922 131.079 34.8554C130.263 36.0814 129.361 37.2666 128.414 38.4927C127.468 39.7188 126.479 40.9857 125.362 42.1709C124.245 43.356 123 44.4596 121.626 45.4814C120.252 46.5032 118.749 47.4432 117.117 48.3014C115.485 49.1596 113.724 49.936 111.834 50.6306C109.944 51.3252 107.925 51.938 105.778 52.469C103.631 53 101.355 53.4492 98.9509 53.8166C96.5466 54.184 94.0141 54.4695 91.3535 54.6732C88.6929 54.8769 85.9042 54.9988 83.0004 55.0389C80.0965 55.079 77.0764 55.0372 74.0099 54.9135C70.9434 54.7898 67.8305 54.5842 64.7176 54.2967C61.6047 54.0092 58.4918 53.6398 55.4254 53.1885C52.359 52.7372 49.3396 52.204 46.4128 51.5889C43.486 50.9738 40.6518 50.2768 38.0311 49.4979C35.4103 48.719 32.8832 47.8582 30.5425 46.9155C28.2019 45.9728 26.048 44.9482 24.0809 43.8418C22.1138 42.7354 20.3336 41.5471 18.7402 40.2769C17.1469 39.0067 15.7405 37.6546 14.521 36.2206C13.3015 34.7866 12.269 33.2707 11.4238 31.6729C10.5786 30.0751 9.9206 28.3954 9.44984 26.6338C8.97909 24.8722 8.69617 23.0287 8.60121 21.1033C8.50625 19.1779 8.59924 17.1706 8.88017 15.0814C9.1611 12.9922 9.63 10.8211 10.2881 8.56811C10.9461 6.31513 11.7834 3.98143 12.7999 1.56701C13.8164 -0.847413 14.9722 -3.34257 16.5699 -5.91845L18.0462 -3.29374C16.4486 -0.717857 15.2927 1.7772 14.2762 4.19162C13.2597 6.60604 12.4224 8.93974 11.7644 11.1927C11.1064 13.4457 10.6273 15.6169 10.3464 17.7061C10.0655 19.7953 9.97253 21.8026 10.0675 23.728C10.1624 25.6534 10.4453 27.4969 10.9161 29.2585C11.3868 31.0201 12.0449 32.6997 12.8901 34.2975C13.7353 35.8953 14.7677 37.4112 15.9872 38.8453C17.2067 40.2793 18.6131 41.6314 20.2064 42.9016C21.7997 44.1718 23.5799 45.3601 25.547 46.4665C27.5141 47.5729 29.6679 48.5975 32.0086 49.5402C34.3492 50.4829 36.8763 51.3437 39.4971 52.1226C42.1179 52.9015 44.8328 53.5985 47.7596 54.2136C50.6864 54.8287 53.7059 55.3619 56.7724 55.8132C59.8389 56.2645 62.9519 56.6339 66.0648 56.9214C69.1777 57.2089 72.2906 57.4146 75.3571 57.5383C78.4236 57.662 81.4437 57.7038 84.4476 57.6637C87.4515 57.6236 90.4391 57.5017 93.3528 57.298C96.2664 57.0943 99.1062 56.8088 101.872 56.4423C104.637 56.0758 107.328 55.6284 109.944 55.1C112.561 54.5716 115.103 53.9623 117.57 53.272C120.037 52.5817 122.43 51.8104 124.748 50.9582C127.066 50.106 129.31 49.1729 131.478 48.1589C133.647 47.1449 135.74 46.05 137.757 44.8742C139.774 43.6984 141.715 42.4417 143.579 41.1041C145.444 39.7665 147.233 38.348 148.945 36.8486C150.658 35.3492 152.294 33.7689 153.853 32.1077C155.413 30.4465 156.895 28.7044 158.301 26.8814C159.706 25.0584 161.035 23.1545 162.286 21.1697C163.537 19.1849 164.711 17.1192 165.808 15.0118C166.905 12.9043 167.925 10.756 168.867 8.56689C169.809 6.37781 170.674 4.14781 171.461 1.87688C172.248 -0.394052 172.958 -2.70591 173.59 -5.05868C174.222 -7.41145 174.776 -9.80513 175.253 -12.2397C175.73 -14.6742 176.129 -17.1496 176.45 -19.6658C176.771 -22.182 177.015 -24.739 177.181 -27.3369C177.347 -29.9348 177.435 -32.5735 177.446 -35.253C177.456 -37.9325 177.388 -40.6529 177.241 -43.4142C177.095 -46.1755 176.87 -48.9777 176.567 -51.8207C176.264 -54.6637 175.883 -57.5476 175.423 -60.4723C174.963 -63.397 174.425 -66.3625 173.808 -69.3688C173.191 -72.3751 172.496 -75.4222 171.722 -78.5101C170.948 -81.598 170.095 -84.7266 169.163 -87.896C168.231 -91.0654 167.22 -94.2756 166.131 -97.5265C165.041 -100.777 163.873 -104.069 162.625 -107.401C161.378 -110.733 160.052 -114.106 158.647 -117.519C157.242 -120.933 155.758 -124.387 154.195 -127.881C152.632 -131.376 150.99 -134.911 149.269 -138.486C147.548 -142.062 145.748 -145.677 143.869 -149.333C141.99 -152.988 140.031 -156.684 137.994 -160.419L140.269 -162.572C142.306 -158.837 144.265 -155.141 146.144 -151.485C148.023 -147.829 149.823 -144.214 151.544 -140.638C153.265 -137.063 154.907 -133.528 156.47 -130.033C158.033 -126.539 159.517 -123.085 160.922 -119.672C162.327 -116.259 163.653 -112.887 164.9 -109.555C166.148 -106.223 167.316 -102.931 168.406 -99.6802C169.495 -96.4291 170.506 -93.2189 171.438 -90.0495C172.37 -86.8801 173.223 -83.7515 173.997 -80.6636C174.771 -77.5757 175.466 -74.5286 176.083 -71.5223C176.7 -68.516 177.238 -65.5505 177.698 -62.6258C178.158 -59.7011 178.539 -56.8172 178.842 -53.9742C179.145 -51.1312 179.37 -48.329 179.516 -45.5677C179.663 -42.8064 179.731 -40.086 179.721 -37.4065C179.711 -34.727 179.623 -32.0883 179.457 -29.4904C179.291 -26.8925 179.047 -24.3355 178.726 -21.8193C178.405 -19.3031 178.006 -16.8277 177.529 -14.3932C177.052 -11.9587 176.498 -9.56498 175.866 -7.21221C175.234 -4.85944 174.524 -2.54758 173.737 -0.276636C172.95 1.99431 172.085 4.22429 171.143 6.41337C170.201 8.60245 169.181 10.7507 168.084 12.8582C166.987 14.9657 165.813 17.0314 164.562 19.0162C163.311 21.001 161.982 22.9049 160.576 24.7279C159.171 26.5509 157.689 28.293 156.129 29.9542C154.57 31.6154 152.934 33.1957 151.221 34.6951C149.508 36.1945 147.719 37.613 146.044 38.9506C144.369 40.2882 142.618 41.5449 140.791 42.7207C138.964 43.8965 137.061 44.9914 135.082 46.0054C133.103 47.0194 131.048 47.9525 128.918 48.8047C126.788 49.6569 124.582 50.4282 122.301 51.1186C120.02 51.809 117.663 52.4185 115.231 52.9471C112.799 53.4757 110.291 53.9233 107.708 54.29C105.124 54.6567 102.465 54.9425 99.7307 55.1474C97.236 55.3396 94.6976 55.4509 92.1156 55.4813C89.5336 55.5117 86.908 55.4612 84.2387 55.3298C81.5694 55.1984 78.8565 54.9861 76.1 54.6929C73.3435 54.3997 70.5435 54.0256 67.7 53.5706C64.8565 53.1156 61.9695 52.5797 59.039 51.9629C56.1085 51.3461 53.1345 50.6484 50.117 49.8698C47.0995 49.0912 44.0385 48.2317 40.934 47.2913C37.8295 46.3509 34.6815 45.3296 31.49 44.2274C28.2985 43.1252 25.0635 41.9421 21.785 40.6781C18.5065 39.4141 15.1845 38.0692 11.819 36.6434C8.4535 35.2176 5.0445 33.7109 1.592 32.1233C-1.8605 30.5357 -5.3565 28.8672 -8.896 27.1178C-12.4355 25.3684 -16.0185 23.5381 -19.645 21.6269C-23.2715 19.7157 -26.9415 17.7236 -30.655 15.6506C-34.3685 13.5776 -38.1255 11.4237 -41.926 9.18888C-45.7265 6.95404 -49.5705 4.63827 -53.458 2.24158C-57.3455 -0.155112 -61.2765 -2.63274 -65.251 -5.19129L-64.7757 -7.06336C-60.8012 -4.50481 -56.8702 -2.02717 -52.9827 0.369521C-49.0952 2.76621 -45.2512 5.08198 -41.4507 7.31682C-37.6502 9.55166 -33.8932 11.7056 -30.1797 13.7786C-26.4662 15.8516 -22.7962 17.8437 -19.1697 19.7549C-15.5432 21.6661 -11.9602 23.4964 -8.4207 25.2458C-4.8812 26.9952 -1.3852 28.6637 2.06726 30.2513C5.51972 31.8389 8.92864 33.3456 12.294 34.7714C15.6594 36.1972 18.9814 37.5421 22.2599 38.8061C25.5384 40.0701 28.7734 41.2532 31.9649 42.3554C35.1564 43.4576 38.3044 44.4789 41.4089 45.4193C44.5134 46.3597 47.5744 47.2192 50.5919 47.9978C53.6094 48.7764 56.5834 49.4741 59.5139 50.0909C62.4444 50.7077 65.3314 51.2436 68.1749 51.6986C71.0184 52.1536 73.8184 52.5277 76.5749 52.8209C79.3314 53.1141 82.0444 53.3264 84.7139 53.4578C87.3834 53.5892 90.0094 53.6397 92.5914 53.6093C95.1734 53.5789 97.7114 53.4676 100.206 53.2754C102.94 53.0705 105.631 52.7847 108.278 52.418C110.925 52.0513 113.529 51.6037 116.089 51.0751C118.649 50.5465 121.165 49.937 123.637 49.2466C126.109 48.5562 128.537 47.7849 130.92 46.9327C133.303 46.0805 135.641 45.1474 137.934 44.1334C140.227 43.1194 142.475 42.0245 144.677 40.8487C146.879 39.6729 149.035 38.4162 151.145 37.0786C153.255 35.741 155.319 34.3225 157.336 32.8231C159.353 31.3237 161.324 29.7434 163.248 28.0822C165.172 26.421 167.05 24.6789 168.881 22.8559C170.712 21.0329 172.497 19.129 174.235 17.1442C175.973 15.1594 177.665 13.0937 179.31 10.9471C180.955 8.80056 182.553 6.57299 184.104 4.26439C185.655 1.95579 187.159 -0.433024 188.616 -2.90255C190.073 -5.37208 191.483 -7.92252 192.846 -10.5539L194.322 -7.9294C192.959 -5.29806 191.549 -2.74758 190.092 -0.278019C188.635 2.19153 187.131 4.57996 185.58 6.88856C184.029 9.19716 182.431 11.4247 180.786 13.5713C179.141 15.7179 177.449 17.7836 175.71 19.7684C173.971 21.7532 172.185 23.6571 170.352 25.4801C168.519 27.3031 166.639 29.0452 164.711 30.7064C162.784 32.3676 160.809 33.9479 158.787 35.4473C156.765 36.9467 154.695 38.3652 152.578 39.7028C150.461 41.0404 148.296 42.2969 146.084 43.4727C143.872 44.6485 141.612 45.7434 139.305 46.7574C136.998 47.7714 134.643 48.7045 132.241 49.5567C129.839 50.4089 127.389 51.1802 124.891 51.8706C122.393 52.561 119.847 53.1705 117.254 53.6991C114.661 54.2277 112.02 54.6754 109.331 55.0421C106.642 55.4088 103.905 55.6946 101.12 55.8995C98.5755 56.0917 96.004 56.203 93.4055 56.2334C90.807 56.2638 88.1815 56.2133 85.5291 56.0819C82.8767 55.9505 80.1973 55.7382 77.4911 55.445C74.7849 55.1518 72.0517 54.7777 69.2916 54.3227C66.5315 53.8677 63.7444 53.3318 60.9304 52.715C58.1164 52.0982 55.2754 51.4005 52.4075 50.6219C49.5396 49.8433 46.6447 48.9838 43.7229 48.0434C40.8011 47.103 37.8523 46.0817 34.8766 44.9795C31.9009 43.8773 28.8982 42.6942 25.8686 41.4302C22.839 40.1662 19.7824 38.8213 16.6989 37.3955C13.6154 35.9697 10.5049 34.463 7.36748 32.8754C4.23006 31.2878 1.06572 29.6193 -2.12554 27.8699C-5.3168 26.1205 -8.53498 24.2902 -11.7801 22.379C-15.0252 20.4678 -18.2973 18.4757 -21.5963 16.4027C-24.8953 14.3297 -28.2213 12.1758 -31.5742 9.94096C-34.9271 7.7061 -38.307 5.39031 -41.7138 2.99358C-45.1206 0.596851 -48.5544 -1.88066 -52.0151 -4.43873L-51.5398 -6.31078C-48.079 -3.75271 -44.6451 -1.2747 -41.2383 1.12209C-37.8315 3.51888 -34.4517 5.83472 -31.0988 8.06966C-27.7459 10.3046 -24.4199 12.4585 -21.1209 14.5315C-17.8219 16.6045 -14.5498 18.5966 -11.3047 20.5078C-8.05963 22.419 -4.84145 24.2493 -1.65019 25.9987C1.54106 27.7481 4.70541 29.4166 7.84282 31.0042C10.9802 32.5918 14.0907 34.0985 17.1741 35.5243C20.2576 36.9501 23.3142 38.295 26.3438 39.559C29.3734 40.823 32.3761 42.0061 35.3518 42.9465C38.3275 43.8869 41.2763 44.7464 44.1981 45.525C47.1199 46.3036 50.0148 46.9993 52.8827 47.6131C55.7506 48.2269 58.5916 48.7588 61.4056 49.2088C64.2196 49.6588 66.9935 50.0269 69.7273 50.3131C72.4611 50.5993 75.1548 50.8036 77.8084 50.926C80.462 51.0484 83.0755 51.0889 85.6491 51.0475C88.2227 51.0061 90.7563 50.8828 93.25 50.6776C95.9842 50.4598 98.6751 50.1601 101.323 49.7785C103.97 49.3969 106.575 48.9334 109.138 48.388C111.701 47.8426 114.222 47.2153 116.701 46.5061C119.18 45.7969 121.617 45.0058 124.012 44.1328C126.407 43.2598 128.76 42.3049 131.071 41.2681C133.382 40.2313 135.651 39.1126 137.878 37.912C140.105 36.7114 142.29 35.4289 144.433 34.0645C146.576 32.7001 148.677 31.2538 150.736 29.7256C152.795 28.1974 154.812 26.5873 156.787 24.8953C158.762 23.2033 160.695 21.4294 162.586 19.5736C164.477 17.7178 166.326 15.7801 168.132 13.7605C169.938 11.7409 171.702 9.63941 173.424 7.45599C175.146 5.27257 176.826 3.00719 178.464 0.659863C180.102 -1.68746 181.698 -4.11642 183.252 -6.62701L184.729 -4.00252C183.175 -1.49193 181.579 0.937029 179.941 3.28449C178.303 5.63195 176.623 7.89733 174.901 10.0808C173.179 12.2642 171.415 14.3657 169.609 16.3853C167.803 18.4049 165.955 20.3426 164.065 22.1984C162.175 24.0542 160.243 25.8281 158.269 27.5201C156.295 29.2121 154.279 30.8222 152.222 32.3504C150.165 33.8786 148.066 35.3249 145.926 36.6893C143.786 38.0537 141.605 39.3362 139.383 40.5368C137.161 41.7374 134.898 42.8561 132.595 43.8929C130.292 44.9297 127.948 45.8846 125.564 46.7576C123.18 47.6306 120.755 48.4217 118.29 49.1309C115.825 49.8401 113.319 50.4674 110.773 51.0128C108.227 51.5582 105.641 52.0217 103.014 52.4033C100.387 52.7849 97.7198 53.0846 94.9913 53.3024C92.503 53.5076 89.9884 53.6309 87.4474 53.6723C84.9064 53.7137 82.3391 53.6732 79.7455 53.5508C77.1519 53.4284 74.532 53.2241 71.8859 52.9379C69.2398 52.6517 66.5675 52.2836 63.869 51.8336C61.1705 51.3836 58.4458 50.8517 55.695 50.2379C52.9442 49.6241 50.1672 48.9284 47.364 48.1508C44.5608 47.3732 41.7315 46.5137 38.876 45.5723C36.0205 44.6309 33.1389 43.6076 30.2311 42.5024C27.3233 41.3972 24.3894 40.2101 21.4293 38.9411C18.4692 37.6721 15.483 36.3212 12.4707 34.8884C9.45842 33.4556 6.42002 31.9409 3.35548 30.3443C0.290946 28.7477 -2.79952 27.0692 -5.91594 25.3088C-9.03236 23.5484 -12.1747 21.7061 -15.343 19.7819C-18.5113 17.8577 -21.7055 15.8516 -24.9256 13.7636C-28.1457 11.6756 -31.3917 9.50565 -34.6636 7.25369C-37.9355 5.00173 -41.2333 2.66778 -44.5569 0.251844C-47.8805 -2.16409 -51.23 -4.66202 -54.6054 -7.24194L-54.13 -9.11399C-50.7546 -6.53407 -47.4051 -4.03615 -44.0815 -1.62021C-40.7579 0.795729 -37.4601 3.12968 -34.1882 5.38164C-30.9163 7.6336 -27.6703 9.80355 -24.4502 11.8915C-21.2301 13.9795 -18.0359 15.9856 -14.8676 17.9098C-11.6993 19.834 -8.55709 21.6763 -5.44067 23.4367C-2.32425 25.1971 0.765658 26.8756 3.82919 28.4722C6.89272 30.0688 9.92962 31.5835 12.9401 33.0163C15.9506 34.4491 18.9353 35.8 21.894 37.069C24.8527 38.338 27.7855 39.5251 30.6923 40.6303C33.5991 41.7355 36.4799 42.7588 39.3347 43.7002C42.1895 44.6416 45.0183 45.5011 47.8211 46.2787C50.6239 47.0563 53.4007 47.752 56.1515 48.3658C58.9023 48.9796 61.6271 49.5115 64.3259 49.9615C67.0247 50.4115 69.6975 50.7796 72.3443 51.0658C74.9911 51.352 77.6119 51.5563 80.2067 51.6787C82.8015 51.8011 85.3703 51.8416 87.9131 51.8002C90.4559 51.7588 92.9727 51.6355 95.4635 51.4303C98.1977 51.2125 100.889 50.9128 103.537 50.5312C106.185 50.1496 108.79 49.6861 111.353 49.1407C113.916 48.5953 116.437 47.968 118.916 47.2588C121.395 46.5496 123.832 45.7585 126.227 44.8855C128.622 44.0125 130.975 43.0576 133.286 42.0208C135.597 40.984 137.866 39.8653 140.093 38.6647C142.32 37.4641 144.505 36.1816 146.648 34.8172C148.791 33.4528 150.892 32.0065 152.951 30.4783C155.01 28.9501 157.027 27.34 159.002 25.648C160.977 23.956 162.91 22.1821 164.801 20.3263C166.692 18.4705 168.541 16.5328 170.347 14.5132C172.153 12.4936 173.917 10.3921 175.639 8.20867C177.361 6.02527 179.041 3.75989 180.679 1.41255C182.317 -0.93479 183.913 -3.36375 185.467 -5.87436C187.021 -8.38496 188.533 -10.9763 190.003 -13.6484C191.473 -16.3205 192.901 -19.0733 194.287 -21.9068C195.673 -24.7403 197.017 -27.6545 198.319 -30.6494C199.621 -33.6443 200.881 -36.7199 202.099 -39.8762C203.317 -43.0325 204.493 -46.2695 205.627 -49.5872C206.761 -52.9049 207.853 -56.3033 208.903 -59.7824C209.953 -63.2615 210.961 -66.8213 211.927 -70.4618C212.893 -74.1023 213.817 -77.8235 214.699 -81.6254C215.581 -85.4273 216.421 -89.3099 217.219 -93.2732C218.017 -97.2365 218.773 -101.281 219.487 -105.406C220.201 -109.531 220.873 -113.737 221.503 -118.024C222.133 -122.311 222.721 -126.679 223.267 -131.128C223.813 -135.577 224.317 -140.107 224.779 -144.718C225.241 -149.329 225.661 -154.021 226.039 -158.794C226.417 -163.567 226.753 -168.421 227.047 -173.356C227.341 -178.291 227.593 -183.307 227.803 -188.404C228.013 -193.501 228.181 -198.679 228.307 -203.938C228.433 -209.197 228.517 -214.537 228.559 -219.958C228.601 -225.379 228.601 -230.881 228.559 -236.464C228.517 -242.047 228.433 -247.711 228.307 -253.456C228.181 -259.201 228.013 -265.027 227.803 -270.934C227.593 -276.841 227.341 -282.829 227.047 -288.898C226.753 -294.967 226.417 -301.117 226.039 -307.348C225.661 -313.579 225.241 -319.891 224.779 -326.284C224.317 -332.677 223.813 -339.151 223.267 -345.706C222.721 -352.261 222.133 -358.897 221.503 -365.614C220.873 -372.331 220.201 -379.129 219.487 -386.008C218.773 -392.887 218.017 -399.847 217.219 -406.888C216.421 -414.018 215.581 -421.208 214.699 -428.458C213.817 -435.708 212.893 -442.999 211.927 -450.329C210.961 -457.659 209.953 -465.029 208.903 -472.439C207.853 -479.849 206.761 -487.299 205.627 -494.789C204.493 -502.279 203.317 -509.809 202.099 -517.379C200.881 -524.949 199.621 -532.559 198.319 -540.209C197.017 -547.859 195.673 -555.549 194.287 -563.279C192.901 -571.009 191.473 -578.779 190.003 -586.589C188.533 -594.399 187.021 -602.249 185.467 -610.139C183.913 -618.029 182.317 -625.959 180.679 -633.929C179.041 -641.899 177.361 -649.909 175.639 -657.959C173.917 -666.009 172.153 -674.099 170.347 -682.229C168.541 -690.359 166.692 -698.529 164.801 -706.739C162.91 -714.949 160.977 -723.199 159.002 -731.489C157.027 -739.779 155.01 -748.109 152.951 -756.479C150.892 -764.849 148.791 -773.259 146.648 -781.709C144.505 -790.159 142.32 -798.649 140.093 -807.179C137.866 -815.709 135.597 -824.279 133.286 -832.889C130.975 -841.499 128.622 -850.149 126.227 -858.839C123.832 -867.529 121.395 -876.259 118.916 -885.029C116.437 -893.799 113.916 -902.609 111.353 -911.459C108.79 -920.309 106.185 -929.199 103.537 -938.129C100.889 -947.059 98.1977 -956.029 95.4635 -965.039L96.9398 -967.664C99.674 -958.654 102.365 -949.684 105.013 -940.754C107.661 -931.824 110.266 -922.934 112.829 -914.084C115.392 -905.234 117.913 -896.424 120.392 -887.654C122.871 -878.884 125.308 -870.154 127.703 -861.464C130.098 -852.774 132.451 -844.124 134.762 -835.514C137.073 -826.904 139.342 -818.334 141.569 -809.804C143.796 -801.274 145.981 -792.784 148.124 -784.334C150.267 -775.884 152.368 -767.474 154.427 -759.104C156.486 -750.734 158.503 -742.404 160.478 -734.114C162.453 -725.824 164.386 -717.574 166.277 -709.364C168.168 -701.154 170.017 -692.984 171.824 -684.854C173.631 -676.724 175.396 -668.634 177.119 -660.584C178.842 -652.534 180.523 -644.524 182.162 -636.554C183.801 -628.584 185.398 -620.654 186.953 -612.764C188.508 -604.874 190.021 -597.024 191.492 -589.214C192.963 -581.404 194.392 -573.634 195.779 -565.904C197.166 -558.174 198.511 -550.484 199.814 -542.834C201.117 -535.184 202.378 -527.574 203.597 -520.004C204.816 -512.434 205.993 -504.904 207.128 -497.414C208.263 -489.924 209.356 -482.474 210.407 -475.064C211.458 -467.654 212.467 -460.284 213.434 -452.954C214.401 -445.624 215.326 -438.334 216.209 -431.084C217.092 -423.834 217.933 -416.624 218.732 -409.454C219.531 -402.284 220.288 -395.154 221.003 -388.064C221.718 -380.974 222.391 -373.924 222.022 -366.914C221.653 -359.904 221.243 -352.934 220.791 -346.004C220.339 -339.074 219.845 -332.184 219.31 -325.334C218.775 -318.484 218.199 -311.674 217.582 -304.904C216.965 -298.134 216.307 -291.404 215.608 -284.714C214.909 -278.024 214.169 -271.374 213.388 -264.764C212.607 -258.154 211.785 -251.584 210.922 -245.054C210.059 -238.524 209.155 -232.034 208.21 -225.584C207.265 -219.134 206.279 -212.724 205.252 -206.354C204.225 -199.984 203.157 -193.654 202.048 -187.364C200.939 -181.074 199.789 -174.824 198.598 -168.614C197.407 -162.404 196.175 -156.234 194.902 -150.104C193.629 -143.974 192.315 -137.884 190.96 -131.834C189.605 -125.784 188.209 -119.774 186.772 -113.804C185.335 -107.834 183.857 -101.904 182.338 -96.0142C180.819 -90.1244 179.259 -84.2745 177.658 -78.4646C176.057 -72.6547 174.415 -66.8848 172.732 -61.1549C171.049 -55.425 169.325 -49.7351 167.56 -44.0852C165.795 -38.4353 163.989 -32.8254 162.142 -27.2555C160.295 -21.6856 158.407 -16.1557 156.478 -10.6658C154.549 -5.17588 152.579 0.254063 150.568 5.62401L148.092 3.96819C150.103 -1.40175 152.073 -6.83169 154.002 -12.3216C155.931 -17.8115 157.819 -23.3414 159.666 -28.9113C161.513 -34.4812 163.319 -40.0911 165.084 -45.741C166.849 -51.3909 168.573 -57.0808 170.256 -62.8107C171.939 -68.5406 173.581 -74.3105 175.182 -80.1204C176.783 -85.9303 178.343 -91.7802 179.862 -97.6701C181.381 -103.56 182.859 -109.49 184.296 -115.46C185.733 -121.43 187.129 -127.44 188.484 -133.49C189.839 -139.54 191.153 -145.63 192.426 -151.76C193.699 -157.89 194.931 -164.06 196.122 -170.27C197.313 -176.48 198.463 -182.73 199.572 -189.02C200.681 -195.31 201.749 -201.64 202.776 -208.01C203.803 -214.38 204.789 -220.79 205.734 -227.24C206.679 -233.69 207.583 -240.18 208.446 -246.71C209.309 -253.24 210.131 -259.81 210.912 -266.42C211.693 -273.03 212.433 -279.68 213.132 -286.37C213.831 -293.06 214.489 -299.79 215.106 -306.56C215.723 -313.33 216.299 -320.14 216.834 -326.99C217.369 -333.84 217.863 -340.73 218.316 -347.66C218.769 -354.59 219.181 -361.56 219.552 -368.57C219.923 -375.58 220.253 -382.63 220.542 -389.72C220.831 -396.81 221.079 -403.94 221.286 -411.11C221.493 -418.28 221.659 -425.49 221.784 -432.74C221.909 -439.99 221.993 -447.28 222.036 -454.61C222.079 -461.94 222.081 -469.31 222.042 -476.72C222.003 -484.13 221.923 -491.58 221.802 -499.07C221.681 -506.56 221.519 -514.09 221.316 -521.66C221.113 -529.23 220.869 -536.84 220.584 -544.49C220.299 -552.14 219.973 -559.83 219.606 -567.56C219.239 -575.29 218.831 -583.06 218.382 -590.87C217.933 -598.68 217.443 -606.53 216.912 -614.42C216.381 -622.31 215.809 -630.24 215.196 -638.21C214.583 -646.18 213.929 -654.19 213.234 -662.24C212.539 -670.29 211.803 -678.38 211.026 -686.51C210.249 -694.64 209.431 -702.81 208.572 -711.02C207.713 -719.23 206.813 -727.48 205.872 -735.77C204.931 -744.06 203.949 -752.39 202.926 -760.76C201.903 -769.13 200.839 -777.54 199.734 -785.99C198.629 -794.44 197.483 -802.93 196.296 -811.46C195.109 -819.99 193.881 -828.56 192.612 -837.17C191.343 -845.78 189.033 -854.43 186.682 -863.12C184.331 -871.81 181.939 -880.54 179.506 -889.31C177.073 -898.08 174.599 -906.89 172.084 -915.74C169.569 -924.59 166.013 -933.48 162.416 -942.41C158.819 -951.34 155.181 -960.31 151.502 -969.32L152.978 -971.945C156.657 -962.935 160.295 -953.965 163.892 -945.035C167.489 -936.105 171.045 -927.215 174.56 -918.365C178.075 -909.515 181.549 -900.705 184.982 -891.935C188.415 -883.165 191.807 -874.435 195.158 -865.745C198.509 -857.055 201.819 -848.405 205.088 -839.795C208.357 -831.185 211.585 -822.615 214.772 -814.085C217.959 -805.555 221.105 -797.065 224.21 -788.615C227.315 -780.165 230.379 -771.755 233.402 -763.385C236.425 -755.015 239.407 -746.685 242.348 -738.395C245.289 -730.105 248.189 -721.855 251.048 -713.645C253.907 -705.435 256.725 -697.265 259.502 -689.135C262.279 -681.005 265.015 -672.915 267.71 -664.865C270.405 -656.815 273.059 -648.805 275.672 -640.835C278.285 -632.865 280.857 -624.935 283.388 -617.045C285.919 -609.155 288.409 -601.305 290.858 -593.495C293.307 -585.685 295.715 -577.915 298.082 -570.185C300.449 -562.455 302.775 -554.765 305.06 -547.115C307.345 -539.465 309.589 -531.855 311.792 -524.285C313.995 -516.715 316.157 -509.185 318.278 -501.695C320.399 -494.205 322.479 -486.755 324.518 -479.345C326.557 -471.935 328.555 -464.565 330.512 -457.235C332.469 -449.905 334.385 -442.615 336.26 -435.365C338.135 -428.115 339.969 -420.905 341.762 -413.735C343.555 -406.565 345.307 -399.435 347.018 -392.345C348.729 -385.255 349 -378.205 349 -371.195C349 -364.185 348.729 -357.215 347.018 -350.285C345.307 -343.355 343.555 -336.465 341.762 -329.615C339.969 -322.765 338.135 -315.955 336.26 -309.185C334.385 -302.415 332.469 -295.685 330.512 -288.995C328.555 -282.305 326.557 -275.655 324.518 -269.045C322.479 -262.435 320.399 -255.865 318.278 -249.335C316.157 -242.805 313.995 -236.315 311.792 -229.865C309.589 -223.415 307.345 -216.005 305.06 -209.635C302.775 -203.265 300.449 -196.935 298.082 -190.645C295.715 -184.355 293.307 -178.105 290.858 -171.895C288.409 -165.685 285.919 -159.515 283.388 -153.385C280.857 -147.255 278.285 -141.165 275.672 -135.115C273.059 -129.065 270.405 -123.055 267.71 -117.085C265.015 -111.115 262.279 -105.185 259.502 -99.2955C256.725 -93.4057 253.907 -87.5559 251.048 -81.746C248.189 -75.9361 245.289 -70.1662 242.348 -64.4363C239.407 -58.7064 236.425 -52.1165 233.402 -47.5266C230.379 -42.9367 227.315 -38.3868 224.21 -33.8769C221.105 -29.367 217.959 -24.897 214.772 -20.467C211.585 -16.037 208.357 -11.647 205.088 -7.29699C201.819 -2.94699 198.509 1.36301 195.158 5.633C191.807 9.903 188.415 14.133 184.982 18.323C181.549 22.513 178.075 26.663 174.56 30.773C171.045 34.883 167.489 38.953 163.892 42.983C160.295 47.013 156.657 51.003 152.978 54.953L151.502 52.328C155.181 48.378 158.819 44.388 162.416 40.358C166.013 36.328 169.569 32.258 173.084 28.148C176.599 24.038 180.073 19.888 183.506 15.698C186.939 11.508 190.331 7.278 193.682 3.008C197.033 -1.262 200.343 -5.572 203.612 -9.922C206.881 -14.272 210.109 -18.662 213.296 -23.092C216.483 -27.522 219.629 -31.992 222.734 -36.502C225.839 -41.012 228.903 -45.562 231.926 -50.152C234.949 -54.742 237.931 -59.372 240.872 -64.042C243.813 -68.712 246.713 -73.422 249.572 -78.172C252.431 -82.922 255.249 -87.712 258.026 -92.542C260.803 -97.372 263.539 -102.242 266.234 -107.152C268.929 -112.062 271.583 -117.012 274.196 -122.002C276.809 -127.002 279.381 -132.042 281.912 -137.122C284.443 -142.202 286.933 -147.322 289.382 -152.482C291.831 -157.642 294.239 -162.842 296.606 -168.082C298.973 -173.322 301.299 -178.602 303.584 -183.922C305.869 -189.242 308.113 -194.602 310.316 -200.002C312.519 -205.402 314.681 -210.842 316.802 -216.322C318.923 -221.802 320.003 -227.322 322.042 -232.882C324.081 -238.442 326.079 -244.042 328.036 -249.682C329.993 -255.322 331.909 -260.002 333.784 -266.722C335.659 -273.442 337.493 -280.202 339.286 -287.002C341.079 -293.802 342.831 -300.642 344.542 -307.522C346.253 -314.402 347.923 -321.322 349.553 -328.282L349 -330.93L203.402 44.8683Z" fill="#DC1568"/>
<path d="M228.358 151.623C231.236 144.552 238.022 138.095 245.452 135.357C246.869 134.826 250.476 133.436 251.808 134.907C253.054 136.297 250.734 138.83 249.918 139.853C247.513 142.836 244.636 145.533 241.845 148.189C239.053 150.847 236.219 153.584 233.083 155.873C232.009 156.65 229.346 158.816 227.886 157.59C226.341 156.322 227.8 152.971 228.358 151.623Z" fill="#DC1568"/>
<path d="M103.383 139.85C102.61 138.869 100.248 136.294 101.494 134.945C102.868 133.474 106.433 134.864 107.85 135.395C115.28 138.174 122.066 144.672 124.943 151.742C125.501 153.091 126.962 156.402 125.373 157.668C123.912 158.853 121.207 156.647 120.176 155.871C117.041 153.581 114.206 150.844 111.415 148.187C108.623 145.572 105.745 142.833 103.383 139.85Z" fill="#13486A"/>
<path d="M228.32 20.5555C227.762 19.2069 226.344 15.9374 227.891 14.6705C229.351 13.4853 232.014 15.6514 233.087 16.4278C236.222 18.7164 239.056 21.4547 241.848 24.1111C244.64 26.7676 247.518 29.4649 249.922 32.4483C250.695 33.4291 253.057 36.0038 251.77 37.3526C250.395 38.7829 246.787 37.3117 245.37 36.7804C238.025 33.9604 231.24 27.5849 228.32 20.5555Z" fill="#3E8247"/>
<path d="M103.383 32.4435C105.788 29.4601 108.666 26.7627 111.457 24.0655C114.249 21.409 117.084 18.6708 120.219 16.3822C121.249 15.6057 123.955 13.3988 125.415 14.584C127.004 15.8101 125.544 19.1204 124.986 20.4281C122.065 27.4575 115.28 33.9148 107.936 36.7347C106.518 37.266 102.954 38.7781 101.536 37.3069C100.248 35.9991 102.61 33.3834 103.383 32.4435Z" fill="#C5202E"/>
<path d="M201.13 25.8261C201.216 25.8261 201.345 25.867 201.431 25.867C208.732 26.6435 215.303 30.5668 220.285 35.5527C223.248 38.577 226.126 41.6422 229.175 44.5846C234.199 49.448 238.451 55.5782 239.353 62.485C239.353 62.5259 239.353 62.5259 239.353 62.5667C239.353 62.6485 239.397 62.7711 239.397 62.8528C240.341 69.31 238.108 75.4403 233.169 80.0174C230.679 82.2243 228.188 84.3903 225.826 86.7607C220.456 92.1554 212.812 94.8527 205.124 94.8118C204.995 94.8118 204.867 94.8118 204.738 94.8118C202.111 94.7709 199.441 94.5263 196.857 93.8723C194.273 93.2183 191.775 92.1554 189.535 90.7698C187.295 89.3842 185.313 87.6756 183.717 85.6848C182.121 83.6939 180.911 81.4207 180.168 79.0686C179.425 76.7165 179.15 74.2855 179.381 71.8954C179.612 69.5053 180.348 67.1969 181.606 65.0463C182.864 62.8957 184.645 60.9444 186.799 59.2767C188.953 57.609 191.48 56.2642 194.165 55.3241C196.85 54.384 199.693 53.8482 202.537 53.6853C205.381 53.5224 208.225 53.7324 210.996 54.3458C213.767 54.9592 216.465 55.976 218.961 57.3983C221.457 58.8206 223.751 60.6484 225.71 62.8142C227.669 64.98 229.293 67.4836 230.465 70.2024C231.637 72.9212 232.356 75.8552 232.59 78.8301C232.824 81.805 232.573 84.8208 231.854 87.7138C231.135 90.6068 229.948 93.377 228.294 95.8397C226.64 98.3024 224.519 100.458 222.054 102.177C219.589 103.896 216.781 105.177 213.801 106.02C210.821 106.863 207.669 107.268 204.546 107.194C201.423 107.12 198.329 106.567 195.436 105.575C192.543 104.583 189.851 103.152 187.488 101.323C185.125 99.4942 183.091 97.267 181.514 94.7635C179.937 92.26 178.817 89.4803 178.24 86.5464C177.663 83.6125 177.629 80.5244 178.139 77.5495C178.649 74.5746 179.703 71.7129 181.216 69.1279C182.729 66.5429 184.701 64.2347 187.046 62.3651C189.391 60.4955 192.109 59.0645 195.027 58.1653C197.945 57.2661 201.063 56.8987 204.181 57.0616C207.299 57.2245 210.417 57.9183 213.335 59.1431C216.253 60.3679 218.971 62.1237 221.316 64.3306C223.661 66.5375 225.633 69.1952 227.109 72.1699C228.585 75.1446 229.565 78.4363 229.968 81.8097C230.371 85.1831 230.197 88.6382 229.446 91.9708C228.695 95.3034 227.367 98.5135 225.52 101.398C223.673 104.283 221.307 106.839 218.555 108.926C215.803 111.013 212.665 112.631 209.313 113.699C205.961 114.767 202.395 115.285 198.87 115.212C195.345 115.139 191.861 114.475 188.638 113.26C185.415 112.045 182.453 110.279 179.907 108.043C177.361 105.807 175.231 103.101 173.644 100.106C172.057 97.1111 171.013 93.8276 170.553 90.4135C170.093 86.9994 170.217 83.4547 170.925 80.0404C171.633 76.626 173.008 73.3421 174.969 70.3674C176.93 67.3927 179.477 64.7268 182.479 62.5199C185.481 60.313 188.938 58.5653 192.678 57.3569C196.418 56.1485 200.441 55.4793 204.464 55.3897C208.487 55.3001 212.51 55.7901 216.379 56.8497C220.248 57.9093 223.963 59.5385 227.35 61.6947C230.737 63.8509 233.796 66.5341 236.398 69.6607C238.999 72.7873 241.143 76.3573 242.745 80.2462C244.347 84.1351 245.407 88.3429 245.881 92.6716C246.355 97.0003 246.243 101.45 245.546 105.82C244.849 110.19 243.567 114.481 241.744 118.504C239.921 122.527 237.557 126.282 234.738 129.605C231.919 132.928 228.645 135.819 224.998 138.156C221.351 140.493 217.331 142.276 213.097 143.424C208.863 144.572 204.415 145.085 199.967 144.956C195.519 144.827 191.071 144.056 186.88 142.681C182.689 141.306 178.755 139.327 175.251 136.824C171.747 134.321 168.673 131.294 166.201 127.864C163.729 124.434 161.859 120.601 160.676 116.527C159.493 112.453 159.027 108.138 159.279 103.823C159.531 99.5088 160.499 95.1943 162.183 91.1121C163.867 87.0299 166.267 83.1808 169.254 79.7508C172.241 76.3208 175.815 73.3099 179.8 70.8472C183.785 68.3845 188.181 66.4702 192.815 65.1906C197.449 63.911 202.321 63.2662 207.194 63.2826C212.067 63.299 216.939 63.9766 221.559 65.2969C226.179 66.6172 230.547 68.5802 234.489 71.0837C238.431 73.5872 241.947 76.6312 244.863 80.102C247.779 83.5728 250.095 87.4704 251.697 91.6374C253.299 95.8044 254.187 100.241 254.317 104.718C254.447 109.195 253.819 113.712 252.433 118.03C251.047 122.348 248.903 126.467 246.087 130.201C243.271 133.935 239.783 137.284 235.794 140.095C231.805 142.906 227.315 145.179 222.496 146.794C217.677 148.409 212.529 149.366 207.38 149.615C202.231 149.864 197.082 149.405 192.115 148.238C187.148 147.071 182.363 145.196 178.006 142.691C173.649 140.186 169.72 137.051 166.39 133.406C163.06 129.761 160.329 125.606 158.325 121.134C156.321 116.662 155.044 111.873 154.538 106.964C154.032 102.055 154.297 97.0262 155.333 92.1569C156.369 87.2876 158.175 82.5779 160.665 78.2693C163.155 73.9607 166.329 70.0531 170.057 66.7282C173.785 63.4033 178.067 60.6612 182.73 58.6257C187.393 56.5902 192.437 55.2613 197.61 54.7207C202.783 54.1801 208.085 54.4277 213.173 55.4635C218.261 56.4993 223.135 58.3233 227.622 60.8521C232.109 63.3809 236.209 66.6145 239.747 70.4365C243.285 74.2585 246.261 78.6689 248.549 83.4842C250.837 88.2995 252.437 93.5197 253.263 98.9283C254.089 104.337 254.141 109.935 253.419 115.384C252.697 120.833 251.201 126.133 248.974 131.075C246.747 136.017 243.789 140.601 240.187 144.647C236.585 148.693 232.339 152.201 227.622 154.996C222.905 157.791 217.717 159.873 212.23 161.162C206.743 162.451 201.058 162.947 195.373 162.649C189.688 162.351 184.003 161.259 178.559 159.424C173.115 157.589 167.912 154.972 163.194 151.697C158.476 148.422 154.243 144.489 150.684 140.081C147.125 135.673 144.24 130.79 142.156 125.626C140.072 120.462 138.789 114.965 138.349 109.396C137.909 103.827 138.312 98.1861 139.558 92.7367C140.804 87.2873 142.893 82.0297 145.739 77.1736C148.585 72.3175 152.188 67.8628 156.376 64.0408C160.564 60.2188 165.337 57.0296 170.521 54.6371C175.705 52.2446 181.3 50.6489 187.024 49.9335C192.748 49.2181 198.601 49.3832 204.268 50.4283C209.935 51.4734 215.415 53.3985 220.537 56.1201C225.659 58.8417 230.423 62.3598 234.657 66.4909C238.891 70.622 242.595 75.3662 245.617 100.648C248.639 105.93 251.069 111.652 252.766 117.653C254.463 123.654 255.427 129.935 255.616 136.236C255.805 142.537 255.219 148.858 253.859 154.999C252.499 161.14 250.365 167.101 247.544 172.681C244.723 178.261 241.216 183.46 236.938 188.079C232.66 192.698 227.611 196.737 221.964 199.994C216.317 203.251 210.073 205.726 203.488 207.295C196.903 208.864 190.078 209.527 183.253 209.284C176.428 209.041 169.603 207.892 163.08 205.837C156.557 203.782 150.336 200.821 144.661 197.075C138.986 193.329 133.857 188.798 129.536 183.665C125.215 178.532 121.701 172.797 119.166 166.683C116.631 160.569 115.075 154.076 114.54 147.462C114.005 140.848 114.491 134.113 115.998 127.539C117.505 120.965 120.033 114.552 123.496 108.639C126.959 102.726 131.357 97.3132 136.518 92.7 l...[Truncated]
<path d="M149.72 126.032C150.279 126.074 150.837 126.074 151.352 126.074C159.083 125.869 166.943 128.73 172.225 134.165C174.673 136.658 177.078 139.232 179.526 141.726C184.294 146.712 186.699 153.251 185.754 159.953C185.711 160.321 185.668 160.689 185.668 161.056C185.367 167.31 190.048 173.48 197.221 171.968C200.828 171.192 205.553 169.884 208.129 167.432C210.836 164.816 211.695 160.607 212.682 157.011C212.768 156.643 212.853 156.316 212.94 155.948C214.228 149.083 218.051 142.543 223.42 137.576C225.954 135.215 228.531 132.895 231.15 130.616C231.493 130.289 231.837 130.003 232.18 129.676C232.224 129.631 232.267 129.585 232.31 129.54C232.653 129.213 232.997 128.886 233.34 128.6C233.34 128.6 233.384 128.559 233.384 128.518C233.727 128.191 234.071 127.864 234.414 127.578C234.758 127.251 235.101 126.924 235.444 126.597C235.788 126.27 236.131 125.984 236.475 125.657C236.818 125.33 237.162 125.003 237.505 124.717C237.849 124.39 238.192 124.063 238.536 123.777C238.879 123.45 239.223 123.123 239.566 122.836C239.91 122.509 240.253 122.182 240.597 121.896C240.94 121.569 241.284 121.242 241.627 120.956C241.971 120.629 242.314 120.302 242.658 120.016C243.001 119.689 243.345 119.362 243.688 119.076C244.032 118.749 244.375 118.422 244.719 118.136C245.062 117.809 245.406 117.482 245.749 117.196C246.093 116.869 246.436 116.542 246.78 116.256C247.123 115.929 247.467 115.602 247.81 115.316C248.154 114.989 248.497 114.662 248.841 114.376C249.184 114.049 249.528 113.722 249.871 113.436C250.215 113.109 250.558 112.782 250.902 112.496C251.245 112.169 251.589 111.842 251.932 111.556C252.276 111.229 252.619 110.902 252.963 110.616C253.306 110.289 253.65 109.962 253.993 109.676C254.337 109.349 254.68 109.022 255.024 108.736C255.367 108.409 255.711 108.082 256.054 107.796C256.398 107.469 256.741 107.142 257.085 106.856C257.428 106.529 257.772 106.202 258.115 105.916C258.459 105.589 258.802 105.262 259.146 104.976C259.489 104.649 259.833 104.322 260.176 104.036C260.52 103.709 260.863 103.382 261.207 103.096C261.55 102.769 261.894 102.442 262.237 102.156C262.581 101.829 262.924 101.502 263.268 101.216C263.611 100.889 263.955 100.562 264.298 100.276C264.642 99.9489 264.985 99.6219 265.329 99.3357C265.672 99.0086 266.016 98.6815 266.359 98.3953C266.703 98.0682 267.046 97.7411 267.39 97.4549C267.733 97.1278 268.077 96.8007 268.42 96.5145C268.764 96.1874 269.107 95.8603 269.451 95.5741C269.794 95.247 270.138 94.9199 270.481 94.6337C270.825 94.3066 271.168 93.9795 271.512 93.6933C271.855 93.3662 272.199 93.0391 272.542 92.7529C272.886 92.4258 273.229 92.0987 273.573 91.8125C273.916 91.4854 274.26 91.1583 274.603 90.8721C274.947 90.545 275.29 90.2179 275.634 89.9317C275.977 89.6046 276.321 89.2775 276.664 88.9913C277.008 88.6642 277.351 88.3371 277.695 88.0509C278.038 87.7238 278.382 87.3967 278.725 87.1105C279.069 86.7834 279.412 86.4563 279.756 86.1701C280.099 85.843 280.443 85.5159 280.786 85.2297C281.13 84.9026 281.473 84.5755 281.817 84.2893C282.16 83.9622 282.504 83.6351 282.847 83.3489C283.191 83.0218 283.534 82.6947 283.878 82.4085C284.221 82.0814 284.565 81.7543 284.908 81.4681C285.252 81.141 285.595 80.8139 285.939 80.5277C286.282 80.2006 286.626 79.8735 286.969 79.5873C287.313 79.2602 287.656 78.9331 288 78.6469C288 78.6469 288 78.6469 201.13 25.8261C149.72 126.032 149.72 126.032 149.72 126.032Z" fill="#01B9B7"/>
<path d="M301.354 240.245C301.354 231.343 296.736 225.572 289.423 225.572C282.11 225.572 277.61 231.203 277.61 240.245V266.669H289.423C296.783 266.669 301.354 262.02 301.354 254.497V240.245ZM312.629 240.245V254.543C312.629 268.281 303.276 277.487 289.353 277.487H277.539V308.911C277.539 310.546 276.203 311.902 274.539 311.902H269.241C267.577 311.902 266.241 310.57 266.241 308.911V240.245C266.241 225.011 275.547 214.801 289.399 214.801C303.346 214.778 312.699 225.011 312.629 240.245Z" fill="white"/>
<path d="M132.959 218.471V308.235C132.959 309.894 134.319 311.249 135.983 311.249H141.28C142.944 311.249 144.304 309.894 144.304 308.235V218.471C144.304 216.812 142.944 215.457 141.28 215.457H135.983C134.295 215.434 132.959 216.789 132.959 218.471Z" fill="white"/>
<path d="M119.789 239.539V308.182C119.789 309.817 118.453 311.172 116.789 311.172H111.491C109.828 311.172 108.491 309.84 108.491 308.182V239.539C108.491 230.637 103.71 224.866 96.3022 224.866C88.872 224.866 84.0905 230.637 84.0905 239.539V247.996C84.1138 248.136 84.1138 248.253 84.0905 248.393V287.037C84.0905 302.06 74.4094 312.504 60.5333 312.504C46.6805 312.504 37 302.037 37 287.037V218.394C37 216.735 38.3357 215.404 40.0001 215.404H45.2976C46.9382 215.404 48.2977 216.735 48.2977 218.394V287.037C48.2977 295.775 53.7736 301.546 60.5333 301.546C67.5495 301.546 72.7925 295.775 72.7925 287.037V248.393C72.7925 248.253 72.7925 248.113 72.7925 247.973C72.7925 247.856 72.7925 247.716 72.7925 247.599V239.539C72.7925 224.305 82.0985 214.095 96.2789 214.095C110.226 214.072 119.789 224.305 119.789 239.539Z" fill="white"/>
<path d="M114.633 354.175V367.605C114.633 371.621 116.173 373.668 118.867 373.668C121.639 373.668 123.179 371.724 123.179 367.605V354.175H128.466V367.273C128.466 374.487 124.822 377.915 118.714 377.915C112.811 377.915 109.346 374.666 109.346 367.221V354.175H114.633Z" fill="white"/>
<path d="M133.061 377.505V354.175H139.246L144.096 362.719C145.482 365.175 146.868 368.091 147.92 370.726H148.023C147.689 367.656 147.561 364.484 147.561 361.005V354.175H152.411V377.505H146.842L141.837 368.5C140.451 366.019 138.911 363 137.782 360.263L137.68 360.289C137.808 363.359 137.885 366.659 137.885 370.47V377.505H133.061Z" fill="white"/>
<path d="M162.346 354.175V377.505H157.033V354.175H162.346Z" fill="white"/>
<path d="M171.458 358.6H165.17V354.175H183.161V358.6H176.771V377.505H171.458V358.6Z" fill="white"/>
<path d="M199.917 367.631H191.294V373.182H200.918V377.505H185.981V354.175H200.431V358.498H191.294V363.333H199.917V367.631Z" fill="white"/>
<path d="M204.54 354.486C206.49 354.179 209.031 354 211.7 354C216.141 354 219.041 354.793 221.299 356.481C223.737 358.272 225.252 361.163 225.252 365.281C225.252 369.758 223.609 372.828 221.351 374.747C218.887 376.793 215.139 377.765 210.546 377.765C207.799 377.765 205.849 377.586 204.54 377.407V354.486ZM209.852 373.519C210.315 373.621 211.033 373.621 211.7 373.621C216.5 373.647 219.631 371.012 219.631 365.461C219.657 360.6 216.808 358.042 212.265 358.042C211.084 358.042 210.315 358.145 209.852 358.247V373.519Z" fill="white"/>
<path d="M11.3131 391.965V415.296H6V391.965H11.3131Z" fill="white"/>
<path d="M15.8818 415.296V391.965H22.0669L26.9176 400.51C28.3036 402.965 29.689 405.882 30.7413 408.517H30.8446C30.5108 405.421 30.3821 402.275 30.3821 398.796V391.965H35.2327V415.296H29.6636L24.6588 406.291C23.2734 403.81 21.7331 400.791 20.6038 398.054L20.5012 398.079C20.6299 401.175 20.707 404.449 20.707 408.261V415.296H15.8818Z" fill="white"/>
<path d="M39.875 415.296V391.965H46.0601L50.9107 400.51C52.2968 402.965 53.6829 405.882 54.7352 408.517H54.8377C54.504 405.421 54.3753 402.275 54.3753 398.796V391.965H59.2265V415.296H53.6567L48.6527 406.291C47.2666 403.81 45.7263 400.791 44.5976 398.054L44.4944 398.079C44.6231 401.175 44.7001 404.449 44.7001 408.261V415.296H39.875Z" fill="white"/>
<path d="M85.2783 403.38C85.2783 411.029 80.6327 415.659 73.7808 415.659C66.8256 415.659 62.7705 410.441 62.7705 403.79C62.7705 396.806 67.2619 391.562 74.1655 391.562C81.3519 391.587 85.2783 396.959 85.2783 403.38ZM68.3651 403.687C68.3651 408.266 70.5213 411.49 74.0629 411.49C77.63 411.49 79.6837 408.087 79.6837 403.559C79.6837 399.364 77.6561 395.782 74.0113 395.782C70.4442 395.782 68.3651 399.159 68.3651 403.687Z" fill="white"/>
<path d="M94.0273 415.296L86.5332 391.965H92.3336L95.1821 401.84C95.9777 404.603 96.7224 407.263 97.2613 410.179H97.3638C97.9536 407.365 98.6728 404.603 99.4939 401.942L102.471 391.965H108.091L100.212 415.296H94.0273Z" fill="white"/>
<path d="M114.2 409.31L112.532 415.296H107.04L114.2 391.965H121.156L128.418 415.296H122.721L120.924 409.31H114.2ZM120.129 405.344L118.666 400.382C118.255 399 117.844 397.261 117.485 395.879H117.408C117.049 397.261 116.716 399.026 116.33 400.382L114.945 405.344H120.129Z" fill="white"/>
<path d="M133.168 396.391H126.88V391.965H144.871V396.391H138.481V415.296H133.168V396.391Z" fill="white"/>
<path d="M153.007 391.972V415.302H147.694V391.972H153.007Z" fill="white"/>
<path d="M179.036 403.385C179.036 411.034 174.39 415.664 167.538 415.664C160.582 415.664 156.527 410.446 156.527 403.794C156.527 396.811 161.019 391.566 167.923 391.566C175.109 391.592 179.036 396.964 179.036 403.385ZM162.123 403.692C162.123 408.271 164.278 411.494 167.82 411.494C171.388 411.494 173.441 408.092 173.441 403.564C173.441 399.369 171.413 395.787 167.769 395.787C164.201 395.787 162.123 399.164 162.123 403.692Z" fill="white"/>
<path d="M182.53 415.302V391.972H188.715L193.566 400.516C194.952 402.972 196.337 405.888 197.39 408.523H197.492C197.159 405.428 197.03 402.281 197.03 398.802V391.972H201.881V415.302H196.364L191.359 406.297C189.973 403.816 188.433 400.797 187.304 398.06L187.201 398.086C187.329 401.181 187.406 404.455 187.406 408.267V415.302H182.53Z" fill="white"/>
<path d="M232.366 414.613C231.391 415.099 229.209 415.611 226.36 415.611C218.276 415.611 214.093 410.597 214.093 403.945C214.093 395.989 219.791 391.564 226.874 391.564C229.62 391.564 231.699 392.127 232.648 392.613L231.57 396.808C230.493 396.348 229.004 395.938 227.131 395.938C222.921 395.938 219.662 398.471 219.662 403.664C219.662 408.346 222.434 411.287 227.156 411.287C228.747 411.287 230.518 410.929 231.57 410.52L232.366 414.613Z" fill="white"/>
<path d="M241.658 409.291L239.99 415.277H234.497L241.658 391.947H248.613L255.876 415.277H250.178L248.382 409.291H241.658ZM247.612 405.326L246.149 400.363C245.739 398.982 245.302 397.242 244.968 395.861H244.891C244.532 397.242 244.198 399.007 243.814 400.363L242.428 405.326H247.612Z" fill="white"/>
<path d="M259.011 392.247C260.653 391.966 262.937 391.761 266.171 391.761C269.43 391.761 271.766 392.375 273.331 393.629C274.82 394.805 275.821 396.749 275.821 399.026C275.821 401.303 275.051 403.247 273.665 404.578C271.869 406.266 269.174 407.033 266.068 407.033C265.375 407.033 264.759 407.008 264.272 406.931V415.271H259.036V392.247H259.011ZM264.246 402.838C264.708 402.94 265.247 402.966 266.017 402.966C268.84 402.966 270.56 401.558 270.56 399.154C270.56 397.005 269.071 395.726 266.248 395.726C265.478 395.726 264.785 395.777 264.246 395.879V402.838Z" fill="white"/>
<path d="M284.516 391.92V415.251H279.203V391.92H284.516Z" fill="white"/>
<path d="M293.603 396.372H287.315V391.947H305.306V396.372H298.915V415.277H293.603V396.372Z" fill="white"/>
<path d="M311.107 409.291L309.438 415.277H303.946L311.107 391.947H318.062L325.325 415.277H319.627L317.831 409.291H311.107ZM317.035 405.326L315.572 400.363C315.162 398.982 314.751 397.242 314.391 395.861H314.314C313.955 397.242 313.621 399.007 313.237 400.363L311.851 405.326H317.035Z" fill="white"/>
<path d="M328.431 391.92H333.743V410.825H343.06V415.251H328.431V391.92Z" fill="white"/>
</svg>